<svg width="60" height="60" viewBox="0 0 60 60" fill="none" xmlns="http://www.w3.org/2000/svg">
<g clip-path="url(#clip0)">
<path d="M43.75 60C34.79 60 27.5 52.71 27.5 43.75C27.5 34.79 34.79 27.5 43.75 27.5C52.71 27.5 60 34.79 60 43.75C60 52.71 52.71 60 43.75 60ZM43.75 30C36.1675 30 30 36.1675 30 43.75C30 51.3325 36.1675 57.5 43.75 57.5C51.3325 57.5 57.5 51.3325 57.5 43.75C57.5 36.1675 51.3325 30 43.75 30Z" fill="#1C480A"/>
<path d="M41.25 50C40.92 50 40.6 49.8675 40.365 49.635L35.365 44.635C34.8775 44.1475 34.8775 43.355 35.365 42.8675C35.8525 42.38 36.645 42.38 37.1325 42.8675L41.1875 46.9225L49.0575 37.9275C49.5125 37.405 50.3025 37.3525 50.8225 37.81C51.3425 38.265 51.395 39.055 50.94 39.575L42.19 49.575C41.9625 49.835 41.635 49.99 41.29 50C41.2775 50 41.2625 50 41.25 50Z" fill="#1C480A"/>
<path d="M25.0175 26.25C24.5575 26.25 24.1175 25.9975 23.8975 25.56C23.59 24.9425 23.84 24.19 24.4575 23.8825L48.1925 12.0075C48.5775 11.8125 49.0375 11.8325 49.4075 12.0625C49.775 12.29 50 12.6925 50 13.125V23.75C50 24.44 49.44 25 48.75 25C48.06 25 47.5 24.44 47.5 23.75V15.1475L25.575 26.1175C25.395 26.2075 25.205 26.25 25.0175 26.25Z" fill="#1C480A"/>
<path d="M23.7325 50C23.5275 50 23.3175 49.95 23.125 49.8425L0.64 37.3425C0.2475 37.1225 0 36.705 0 36.25V13.125C0 12.6925 0.225 12.29 0.5925 12.0625C0.96 11.8325 1.425 11.8125 1.8075 12.0075L25.5425 23.8825C26.16 24.1925 26.41 24.9425 26.1025 25.56C25.795 26.1775 25.0425 26.4275 24.425 26.12L2.5 15.1475V35.515L24.3425 47.6575C24.945 47.9925 25.1625 48.7525 24.8275 49.3575C24.5975 49.7675 24.1725 50 23.7325 50Z" fill="#1C480A"/>
<path d="M48.7503 14.3757C48.5628 14.3757 48.3728 14.3332 48.1928 14.2432L24.9852 2.64823L1.81024 14.2432C1.19274 14.5482 0.440245 14.3032 0.132745 13.6857C-0.174755 13.0682 0.0727449 12.3157 0.690245 12.0082L24.4252 0.133234C24.7778 -0.0417664 25.1927 -0.0417664 25.5427 0.133234L49.3078 12.0082C49.9253 12.3182 50.1753 13.0682 49.8678 13.6857C49.6503 14.1232 49.2078 14.3757 48.7503 14.3757Z" fill="#1C480A"/>
<path d="M12.6075 29.3475C11.9175 29.3475 11.3575 28.7875 11.3575 28.0975V18.8025C11.3575 18.33 11.625 17.8975 12.0475 17.685L35.7825 5.81003C36.4 5.50253 37.15 5.75253 37.46 6.37003C37.77 6.98753 37.5175 7.73753 36.9 8.04753L13.8575 19.5775V28.1C13.8575 28.79 13.3 29.3475 12.6075 29.3475Z" fill="#1C480A"/>
</g>
<defs>
<clipPath id="clip0">
<rect width="60" height="60" rx="5" fill="white"/>
</clipPath>
</defs>
</svg>
