<svg width="60" height="60" viewBox="0 0 60 60" fill="none" xmlns="http://www.w3.org/2000/svg">
<path d="M14.5905 23.6561L14.5977 23.6757L14.5879 23.6484L14.5905 23.6561Z" fill="#1C480A"/>
<path d="M14.5905 41.6561L14.5977 41.6757L14.5879 41.6484L14.5905 41.6561Z" fill="#1C480A"/>
<path d="M55 3.99997H5.00008C4.73488 3.99985 4.48047 4.1052 4.29285 4.29282C4.10535 4.48032 4 4.73474 4 5.00005V55.0001C3.99988 55.2653 4.10523 55.5197 4.29285 55.7073C4.48035 55.8948 4.73477 56.0002 5.00008 56.0002H11.2421C11.284 56.0095 11.3264 56.016 11.3692 56.0197C11.4036 56.0149 11.4378 56.0085 11.4714 56.0002H29.2421C29.284 56.0095 29.3264 56.016 29.3692 56.0197C29.4036 56.0149 29.4378 56.0085 29.4714 56.0002H55C55.2653 56.0003 55.5197 55.895 55.7072 55.7074C55.8948 55.5198 56.0001 55.2654 56 55.0002V5.00005C56.0001 4.73474 55.8948 4.48032 55.7072 4.29282C55.5197 4.1052 55.2653 3.99985 55 3.99997ZM50.2666 47.0986C50.2734 47.0859 50.2792 47.0722 50.2851 47.0586L50.2933 47.0414C50.3337 46.9581 50.3748 46.8756 50.4119 46.7908C50.4173 46.7779 50.428 46.7589 50.4326 46.747C50.4824 46.6352 50.5173 46.5246 50.5595 46.4135C50.5896 46.3321 50.6249 46.2529 50.652 46.1704C50.6976 46.0323 50.7318 45.8924 50.7661 45.7533C50.8088 45.5895 50.8462 45.4247 50.877 45.2576C50.8979 45.1505 50.9201 45.0471 50.9356 44.9268C50.9417 44.8914 50.9458 44.8556 50.948 44.8198C51.0174 44.2754 51.0174 43.7245 50.948 43.1802C50.9458 43.1443 50.9417 43.1086 50.9356 43.0732C50.9207 42.9586 50.898 42.8514 50.877 42.7424C50.8476 42.5825 50.8123 42.4249 50.772 42.268C50.7357 42.1179 50.6985 41.9691 50.6506 41.824C50.6334 41.7716 50.6106 41.7215 50.5921 41.6695C50.5463 41.5437 50.5046 41.4154 50.4503 41.2949C50.442 41.2736 50.43 41.2535 50.421 41.2322C50.3807 41.139 50.3366 41.0479 50.2922 40.9563L50.2852 40.9413C50.2793 40.9276 50.2735 40.914 50.2667 40.9014L50.2677 40.9003C50.2471 40.8556 50.218 40.8142 50.1957 40.7698C50.1107 40.6072 50.0209 40.4476 49.9232 40.2918C49.8918 40.2363 49.8598 40.1797 49.8319 40.1378L49.8516 40.121C49.8852 40.0935 49.9223 40.0665 49.9581 40.0397C49.9973 40.0106 50.0327 39.9832 50.0802 39.9501C50.2082 39.8631 50.3342 39.7763 50.4679 39.6922C50.5534 39.6363 50.644 39.5886 50.7384 39.5496C50.7886 39.5296 50.8373 39.5058 50.8839 39.4784C50.9309 39.4511 50.9802 39.4282 51.0313 39.41L51.0404 39.4062C51.0619 39.3973 51.0761 39.3909 51.1046 39.3797C51.1866 39.3425 51.2696 39.3133 51.3633 39.2792L51.3712 39.2772C51.4214 39.2664 51.4707 39.2517 51.5186 39.2332C51.6019 39.2011 51.6871 39.1746 51.7739 39.1539C51.8024 39.1471 51.8757 39.1272 51.8916 39.1219C51.9371 39.117 51.9822 39.1084 52.0264 39.0965C52.1411 39.0702 52.2576 39.0519 52.3749 39.0418C52.7916 38.9904 53.2131 38.9907 53.6297 39.0429C53.7454 39.0526 53.8604 39.0706 53.9734 39.0966L53.9998 39.1024V48.8972L53.9734 48.9032C53.8586 48.9295 53.7421 48.9477 53.6248 48.9579C53.2077 49.0093 52.786 49.009 52.3689 48.957C52.3246 48.9536 52.2805 48.9474 52.2371 48.9384C52.199 48.9297 52.0906 48.9121 52.0516 48.9072C51.9999 48.8934 51.9474 48.8834 51.8943 48.8769L51.7762 48.8467C51.6885 48.8258 51.6024 48.7991 51.5184 48.7667C51.4852 48.754 51.4168 48.7354 51.368 48.7227L51.3514 48.7168L51.3065 48.7001C51.2696 48.6877 51.2358 48.6738 51.2021 48.6604C51.1567 48.6425 51.1077 48.6227 51.0438 48.5947C51.0018 48.5791 50.9646 48.5634 50.8641 48.5156C50.7306 48.4584 50.6025 48.3895 50.4813 48.3096C50.4536 48.2901 50.4234 48.2742 50.3914 48.2627C50.3526 48.2312 50.3118 48.2023 50.2693 48.1758C50.1882 48.1269 50.1072 48.0703 50.0281 48.0137C49.9616 47.9674 49.8989 47.9119 49.835 47.859C49.8755 47.796 49.9134 47.7317 49.9503 47.6665C50.0382 47.5242 50.1179 47.3781 50.1952 47.2302C50.2176 47.1859 50.2466 47.1444 50.2673 47.0998L50.2666 47.0986ZM53.875 37.0575C53.2954 36.9879 52.7096 36.9875 52.1298 37.0566C51.9428 37.0771 51.757 37.1078 51.5732 37.1484C51.4938 37.1615 51.4151 37.1794 51.3379 37.2021L51.3296 37.2046L51.3232 37.206C51.2739 37.2174 51.2247 37.2363 51.1754 37.2498C51.0704 37.2782 50.9629 37.3042 50.8662 37.3408L50.8613 37.3423C50.7996 37.3549 50.7393 37.3739 50.6815 37.3988L50.6611 37.4052C50.639 37.4128 50.6208 37.422 50.5993 37.4297C50.5101 37.4625 50.4326 37.4925 50.3818 37.5156C50.3549 37.5272 50.3239 37.5366 50.2979 37.5488C50.1709 37.5973 50.0475 37.6547 49.9287 37.7207C49.7486 37.7978 49.5752 37.8895 49.4102 37.9951L49.4003 38.0015L49.3975 38.003L49.379 38.0152L49.253 38.0958C49.2191 38.1175 49.1868 38.1413 49.1521 38.1641C48.9975 37.9812 48.856 37.7875 48.7286 37.5846L48.7026 37.5401C48.5603 37.3001 48.4382 37.0486 48.3375 36.7883L48.3157 36.7322C48.2166 36.4671 48.1403 36.1942 48.0876 35.9162C48.0837 35.8979 48.0816 35.8771 48.0784 35.8582C47.9737 35.2913 47.9737 34.7099 48.0784 34.1431C48.0817 34.1236 48.0836 34.1026 48.0877 34.0836C48.1409 33.8007 48.2186 33.5229 48.3197 33.2535L48.3278 33.2319C48.4311 32.9625 48.5573 32.7026 48.7052 32.4549L48.7255 32.421L48.7292 32.4148C48.8563 32.2122 48.9977 32.0187 49.1521 31.8359L49.1767 31.8516C49.228 31.8898 49.2886 31.9235 49.3469 31.9586C49.3845 31.9812 49.4199 32.0098 49.4589 32.0293C49.4686 32.0353 49.4786 32.0391 49.4884 32.0449C49.6329 32.1329 49.7825 32.2124 49.9362 32.2827C49.9662 32.2972 49.9977 32.3172 50.0273 32.3311C50.1047 32.3708 50.1845 32.406 50.2662 32.4365C50.2852 32.4437 50.3021 32.4553 50.3213 32.462C50.4268 32.5098 50.541 32.5538 50.6611 32.5948C50.7276 32.6211 50.7958 32.6427 50.8653 32.6592C51.0054 32.7127 51.1495 32.7558 51.2959 32.7881C51.397 32.8175 51.4996 32.8404 51.6036 32.8565C51.6748 32.8731 51.748 32.8858 51.8262 32.8964C51.9238 32.916 52.0216 32.9296 52.125 32.9424C52.7042 33.0189 53.2909 33.0192 53.8702 32.9434C53.9141 32.9375 53.9571 32.9326 54 32.9268V37.0732C53.959 37.0683 53.9171 37.0624 53.875 37.0575ZM46.7222 31.9248C46.7112 31.9445 46.7034 31.9627 46.6929 31.9822C46.6816 32.0059 46.6686 32.0284 46.6574 32.0521C46.6199 32.1254 46.5868 32.201 46.5582 32.2783C46.5114 32.3795 46.471 32.4836 46.4371 32.5897C46.3935 32.6822 46.3601 32.7791 46.3375 32.8788L46.3311 32.9003C46.3128 32.9579 46.2958 33.0156 46.279 33.0737C46.2559 33.1498 46.2275 33.2302 46.2115 33.2987C46.1855 33.3893 46.1643 33.4813 46.148 33.5741C46.1249 33.6701 46.1138 33.7751 46.0984 33.8765C46.0893 33.9326 46.0788 33.9879 46.0709 34.0443C46.0674 34.0719 46.0611 34.0969 46.0577 34.1249C45.981 34.704 45.9808 35.2908 46.0572 35.87C46.0607 35.899 46.067 35.9241 46.0707 35.9525C46.0788 36.0108 46.0895 36.0681 46.099 36.1261C46.1143 36.2263 46.1254 36.3308 46.148 36.4256C46.1621 36.5104 46.1813 36.5943 46.2057 36.6767C46.2244 36.7566 46.2528 36.8365 46.2768 36.9164C46.2946 36.9784 46.3123 37.0399 46.3318 37.1013L46.337 37.119C46.3516 37.1936 46.3743 37.2663 46.4049 37.3358C46.4518 37.4638 46.5 37.5927 46.5309 37.6542C46.5548 37.7195 46.5897 37.7818 46.6185 37.8465C46.6491 37.9147 46.6786 37.9828 46.7113 38.0501L46.7222 38.0741C46.792 38.2359 46.8754 38.3915 46.9717 38.539C47.0028 38.5961 47.0465 38.6499 47.0808 38.7065C47.1098 38.7526 47.1309 38.8029 47.1609 38.8486C47.0324 38.9517 46.8986 39.0479 46.7601 39.1369C46.6804 39.189 46.606 39.2497 46.5235 39.2968C46.34 39.3972 46.1502 39.4856 45.9552 39.5616C45.8759 39.5939 45.801 39.6365 45.7203 39.6647C45.5441 39.7215 45.365 39.7686 45.1837 39.8059C45.0757 39.8309 44.971 39.8679 44.8616 39.8859C44.7429 39.9058 44.6221 39.905 44.5023 39.9165C44.1628 39.9489 43.821 39.9485 43.4816 39.9152C43.3676 39.9039 43.2527 39.9048 43.1397 39.8861C43.0255 39.8673 42.916 39.8289 42.8034 39.8025C42.6269 39.7661 42.4526 39.7201 42.2811 39.6652C42.1975 39.6361 42.1203 39.5923 42.0385 39.5588C41.8458 39.4835 41.6582 39.3961 41.4767 39.297C41.3949 39.2503 41.3211 39.1902 41.2421 39.1385C41.1026 39.049 40.968 38.9522 40.8388 38.8484C40.8569 38.8209 40.8693 38.7906 40.887 38.7629C41.0358 38.5317 41.1709 38.292 41.2915 38.0449C41.3083 38.0106 41.3281 37.9779 41.3441 37.9433C41.4741 37.6627 41.5854 37.3737 41.6771 37.0784C41.6976 37.013 41.7127 36.9464 41.7313 36.8803C41.797 36.6463 41.8504 36.4091 41.8913 36.1695C41.9056 36.086 41.9207 36.0034 41.9318 35.9194C42.0228 35.3098 42.0228 34.6901 41.9318 34.0805C41.9206 33.9965 41.9056 33.9138 41.8913 33.8304C41.8504 33.5909 41.7971 33.3536 41.7313 33.1195C41.7127 33.0536 41.6977 32.9869 41.6771 32.9215C41.5853 32.6261 41.4741 32.3371 41.3441 32.0565C41.328 32.022 41.3082 31.9893 41.2915 31.9549C41.1708 31.7079 41.0358 31.4681 40.887 31.2369C40.8693 31.2093 40.8569 31.1789 40.8388 31.1515C40.9677 31.048 41.102 30.9515 41.241 30.862C41.3205 30.8101 41.3948 30.7495 41.477 30.7027C41.6582 30.6038 41.8456 30.5166 42.0379 30.4415C42.1199 30.4078 42.1975 30.364 42.2812 30.3347C42.4519 30.28 42.6254 30.2343 42.8009 30.1979C42.9145 30.1713 43.025 30.1327 43.1402 30.1137C43.2505 30.0953 43.3629 30.0965 43.4743 30.0852C43.8186 30.051 44.1654 30.0505 44.5098 30.0839C44.627 30.0954 44.7453 30.0945 44.8614 30.1138C44.9718 30.132 45.0776 30.1693 45.1865 30.1945C45.3668 30.2317 45.5451 30.2786 45.7203 30.335C45.8014 30.3634 45.8765 30.4059 45.9558 30.4384C46.1504 30.5142 46.3398 30.6026 46.5231 30.7028C46.6061 30.7501 46.6809 30.8111 46.761 30.8636C46.8992 30.9524 47.0327 31.0485 47.1609 31.1513C47.1398 31.1833 47.1252 31.2188 47.1047 31.251C47.072 31.302 47.0302 31.3579 47.0066 31.4013C46.898 31.5679 46.8029 31.7429 46.7222 31.9248ZM47.0336 28.7026C47.0043 28.6884 46.9764 28.6715 46.9469 28.6577C46.6637 28.5264 46.3723 28.4141 46.0742 28.3216C46.0124 28.3023 45.9496 28.2881 45.8873 28.2706C45.65 28.2036 45.4093 28.1495 45.1662 28.1081C45.0842 28.0942 45.0029 28.0793 44.9202 28.0682C44.3103 27.9771 43.6901 27.9771 43.08 28.0682C42.9968 28.0793 42.915 28.0943 42.8323 28.1084C42.5908 28.1495 42.3517 28.2034 42.1158 28.2697C42.0518 28.2878 41.9873 28.3024 41.9239 28.3222C41.627 28.4143 41.3368 28.5261 41.0549 28.6568C41.0227 28.6718 40.9923 28.6902 40.9605 28.7058C40.711 28.8274 40.4689 28.9637 40.2355 29.1141C40.2081 29.1318 40.1779 29.144 40.1507 29.1619C40.0477 29.0364 39.9546 28.9048 39.8649 28.7711C39.8088 28.6876 39.7449 28.6092 39.694 28.5227C39.5936 28.3446 39.5042 28.1604 39.4263 27.9714C39.3909 27.8897 39.3456 27.8125 39.3146 27.729C39.2431 27.5255 39.185 27.3175 39.1405 27.1064C39.1231 27.0302 39.0943 26.9575 39.0803 26.8804C38.9729 26.2983 38.9729 25.7015 39.0803 25.1194C39.0941 25.0424 39.123 24.9695 39.1405 24.8933C39.1851 24.6823 39.2432 24.4743 39.3146 24.2707C39.3456 24.1872 39.3907 24.11 39.4263 24.0284C39.5042 23.8392 39.5936 23.6551 39.694 23.477C39.7449 23.3905 39.8088 23.3121 39.8649 23.2287C39.9546 23.095 40.0476 22.9634 40.1507 22.8379C40.1758 22.8545 40.2038 22.8653 40.2291 22.8815C41.3528 23.6083 42.6617 23.9965 44 24C45.3389 23.9966 46.6486 23.6079 47.7727 22.8803C47.7999 22.8628 47.8301 22.8512 47.8572 22.8333C47.8707 22.8496 47.8845 22.8673 47.8977 22.884C48.0511 23.0754 48.1902 23.2777 48.3141 23.4894C48.3407 23.5314 48.3604 23.5749 48.3838 23.6169C48.5032 23.8327 48.6065 24.057 48.6929 24.2879C48.6979 24.3029 48.7041 24.3157 48.7093 24.3309C48.7989 24.5835 48.8679 24.8428 48.9159 25.1065C48.9211 25.134 48.9254 25.1642 48.9295 25.1927C49.0234 25.7263 49.0236 26.2722 48.9296 26.8057C48.9255 26.8351 48.9212 26.8655 48.9157 26.894C48.8678 27.1574 48.7988 27.4166 48.7093 27.6689C48.7041 27.6843 48.6979 27.697 48.6929 27.7119C48.6002 27.9652 48.4873 28.2104 48.3551 28.4454L48.3279 28.4904C48.2003 28.7098 48.0564 28.9191 47.8971 29.1166L47.8572 29.1666C47.8281 29.1472 47.7958 29.1341 47.7664 29.1154C47.5307 28.9633 47.286 28.8254 47.0336 28.7026ZM32.9318 43.0806C32.9206 42.9966 32.9056 42.914 32.8913 42.8305C32.8504 42.591 32.7971 42.3537 32.7313 42.1197C32.7127 42.0537 32.6977 41.987 32.6772 41.9216C32.5854 41.6262 32.4742 41.3372 32.3443 41.0567C32.3282 41.0221 32.3083 40.9894 32.2916 40.955C32.1709 40.708 32.0359 40.4683 31.8871 40.237C31.8694 40.2094 31.857 40.179 31.8389 40.1516C31.9683 40.0477 32.1032 39.9506 32.2428 39.861C32.3215 39.8095 32.395 39.7495 32.4766 39.7031C32.6593 39.6033 32.8483 39.5153 33.0422 39.4396C33.1225 39.4067 33.1986 39.3638 33.2805 39.335C33.4537 39.2794 33.6297 39.2331 33.8077 39.1963C33.9188 39.1705 34.0267 39.1324 34.1395 39.1139C34.2529 39.095 34.3682 39.096 34.4826 39.0846C34.8268 39.0508 35.1734 39.0508 35.5176 39.0846C35.632 39.096 35.7473 39.095 35.8607 39.1139C35.9733 39.1324 36.0812 39.1704 36.1923 39.1963C36.3705 39.2331 36.5466 39.2795 36.7197 39.3352C36.8017 39.3638 36.8777 39.4069 36.958 39.4397C37.152 39.5154 37.3409 39.6034 37.5236 39.7031C37.6052 39.7495 37.6786 39.8095 37.7574 39.861C37.8971 39.9506 38.0318 40.0477 38.1612 40.1516C38.1432 40.179 38.1307 40.2094 38.113 40.237C37.9642 40.4683 37.8291 40.708 37.7085 40.955C37.6918 40.9894 37.672 41.0221 37.6559 41.0567C37.5259 41.3373 37.4146 41.6263 37.323 41.9216C37.3025 41.987 37.2873 42.0536 37.2687 42.1197C37.2031 42.3537 37.1497 42.5909 37.1088 42.8305C37.0945 42.914 37.0793 42.9966 37.0682 43.0806C36.9773 43.6902 36.9773 44.3099 37.0682 44.9195C37.0795 45.0035 37.0945 45.0861 37.1088 45.1696C37.1497 45.4091 37.203 45.6464 37.2687 45.8804C37.2873 45.9464 37.3023 46.0131 37.323 46.0785C37.4147 46.3739 37.5259 46.6628 37.6559 46.9434C37.6721 46.978 37.6919 47.0107 37.7085 47.045C37.8292 47.2921 37.9642 47.5318 38.113 47.7631C38.1324 47.7932 38.1459 47.8265 38.1655 47.8562C38.1473 47.8715 38.1277 47.8867 38.1087 47.9017C36.3109 49.2694 33.8298 49.2991 31.9998 47.9749C31.9451 47.9344 31.8892 47.8966 31.8365 47.8527C31.8555 47.8239 31.8685 47.792 31.8871 47.7629C32.0359 47.5317 32.1711 47.292 32.2916 47.0449C32.3084 47.0106 32.3282 46.9779 32.3443 46.9433C32.4742 46.6627 32.5855 46.3737 32.6772 46.0784C32.6977 46.013 32.7128 45.9464 32.7313 45.8803C32.797 45.6463 32.8504 45.4091 32.8913 45.1695C32.9056 45.086 32.9206 45.0034 32.9318 44.9194C33.0228 44.3098 33.0228 43.6901 32.9318 43.0806ZM38.0395 37.7059C38.0076 37.6904 37.9771 37.6719 37.945 37.6569C37.663 37.5261 37.3728 37.4145 37.0761 37.3224C37.0125 37.3025 36.9481 37.2879 36.8841 37.2699C36.6483 37.2035 36.4091 37.1496 36.1676 37.1085C36.0849 37.0944 36.0031 37.0794 35.9199 37.0683C35.3102 36.9774 34.6902 36.9774 34.0804 37.0683C33.9972 37.0794 33.9154 37.0944 33.8327 37.1085C33.5911 37.1496 33.3521 37.2035 33.1162 37.2699C33.0522 37.2879 32.9876 37.3025 32.9242 37.3224C32.6274 37.4145 32.3371 37.5263 32.0553 37.6569C32.023 37.6719 31.9927 37.6903 31.9608 37.7059C31.7113 37.8275 31.4692 37.9638 31.2359 38.1142C31.2085 38.1319 31.1782 38.1441 31.1511 38.162C31.048 38.0365 30.955 37.9049 30.8652 37.7712C30.8091 37.6877 30.7452 37.6093 30.6944 37.5229C30.5939 37.3447 30.5045 37.1605 30.4266 36.9715C30.3912 36.8898 30.346 36.8126 30.3149 36.7291C30.2434 36.5256 30.1853 36.3176 30.1409 36.1065C30.1233 36.0304 30.0946 35.9576 30.0807 35.8805C29.9732 35.2984 29.9732 34.7016 30.0807 34.1195C30.0945 34.0425 30.1233 33.9696 30.1409 33.8934C30.1854 33.6824 30.2436 33.4744 30.3149 33.2708C30.346 33.1873 30.3911 33.1102 30.4266 33.0285C30.5045 32.8393 30.5939 32.6552 30.6944 32.4771C30.7452 32.3906 30.8091 32.3122 30.8652 32.2288C30.955 32.0951 31.0479 31.9635 31.1511 31.838C31.1761 31.8546 31.2041 31.8654 31.2295 31.8816C33.5221 33.3729 36.4783 33.3729 38.7709 31.8816C38.7962 31.8653 38.8243 31.8546 38.8493 31.838C38.9523 31.9636 39.0453 32.0952 39.1352 32.2288C39.1913 32.3122 39.2552 32.3906 39.306 32.4771C39.4064 32.6552 39.4959 32.8395 39.5738 33.0285C39.6092 33.1102 39.6544 33.1874 39.6855 33.2708C39.757 33.4744 39.8151 33.6824 39.8595 33.8934C39.877 33.9696 39.9058 34.0424 39.9197 34.1195C40.0272 34.7016 40.0272 35.2984 39.9197 35.8805C39.9059 35.9575 39.8771 36.0304 39.8595 36.1065C39.815 36.3176 39.7568 36.5256 39.6855 36.7291C39.6544 36.8127 39.6092 36.8898 39.5738 36.9715C39.4959 37.1606 39.4064 37.3447 39.306 37.5229C39.2552 37.6093 39.1913 37.6877 39.1352 37.7712C39.0454 37.9049 38.9525 38.0365 38.8493 38.162C38.8222 38.144 38.7919 38.1318 38.7645 38.1142C38.5309 37.964 38.2889 37.8275 38.0395 37.7059ZM28.0682 35.9195C28.0795 36.0035 28.0946 36.0861 28.1087 36.1696C28.1496 36.4091 28.203 36.6464 28.2687 36.8804C28.2873 36.9464 28.3023 37.0131 28.323 37.0785C28.4147 37.3739 28.5259 37.6629 28.6559 37.9434C28.672 37.978 28.6919 38.0107 28.7085 38.045C28.8292 38.2921 28.9642 38.5318 29.113 38.7631C29.1307 38.7907 29.1432 38.8211 29.1612 38.8485C29.0315 38.9527 28.8964 39.0499 28.7563 39.1397C28.678 39.1908 28.6049 39.2504 28.5238 39.2967C28.3409 39.3967 28.1518 39.4849 27.9576 39.5606C27.8774 39.5934 27.8016 39.6363 27.7198 39.6649C27.5458 39.7209 27.3688 39.7675 27.1898 39.8044C27.0796 39.8299 26.9727 39.8677 26.8612 39.8859C26.7452 39.9053 26.6273 39.9045 26.5102 39.9159C26.1709 39.9488 25.8293 39.9488 25.4901 39.9159C25.3731 39.9046 25.2551 39.9053 25.1391 39.8859C25.0275 39.8675 24.9205 39.8299 24.8104 39.8044C24.6313 39.7675 24.4544 39.7209 24.2804 39.6649C24.1987 39.6363 24.1229 39.5934 24.0427 39.5606C23.8484 39.4848 23.6593 39.3967 23.4762 39.2966C23.3951 39.2503 23.322 39.1907 23.2437 39.1396C23.1037 39.0497 22.9686 38.9525 22.8388 38.8484C22.8569 38.8209 22.8693 38.7906 22.887 38.7629C23.0358 38.5317 23.1709 38.292 23.2915 38.0449C23.3083 38.0106 23.3281 37.9779 23.3441 37.9433C23.4741 37.6627 23.5854 37.3737 23.6771 37.0784C23.6976 37.013 23.7127 36.9464 23.7313 36.8803C23.797 36.6463 23.8504 36.4091 23.8913 36.1695C23.9056 36.086 23.9207 36.0034 23.9318 35.9194C24.0228 35.3098 24.0228 34.6901 23.9318 34.0805C23.9206 33.9965 23.9056 33.9138 23.8913 33.8304C23.8504 33.5909 23.7971 33.3536 23.7313 33.1195C23.7127 33.0536 23.6977 32.9869 23.6771 32.9215C23.5853 32.6261 23.4741 32.3371 23.3441 32.0565C23.328 32.022 23.3082 31.9893 23.2915 31.9549C23.1708 31.7079 23.0358 31.4681 22.887 31.2369C22.8693 31.2093 22.8569 31.1789 22.8388 31.1515C22.9682 31.0475 23.103 30.9505 23.2427 30.8609C23.3215 30.8094 23.395 30.7494 23.4766 30.703C23.6593 30.6032 23.8483 30.5152 24.0422 30.4395C24.1225 30.4065 24.1986 30.3636 24.2805 30.3349C24.4537 30.2793 24.6297 30.233 24.8077 30.1962C24.9188 30.1704 25.0267 30.1323 25.1395 30.1138C25.2529 30.0949 25.3682 30.0959 25.4826 30.0845C25.8268 30.0506 26.1734 30.0506 26.5176 30.0845C26.632 30.0959 26.7473 30.0949 26.8607 30.1138C26.9733 30.1323 27.0813 30.1703 27.1923 30.1962C27.3705 30.233 27.5466 30.2793 27.7197 30.335C27.8017 30.3636 27.8777 30.4068 27.958 30.4396C28.152 30.5153 28.3409 30.6033 28.5236 30.703C28.6052 30.7494 28.6786 30.8094 28.7574 30.8609C28.8971 30.9505 29.0318 31.0475 29.1612 31.1515C29.1432 31.1789 29.1307 31.2093 29.113 31.2369C28.9642 31.4681 28.8292 31.7079 28.7085 31.9549C28.6918 31.9893 28.672 32.022 28.6559 32.0565C28.5259 32.3372 28.4146 32.6262 28.323 32.9215C28.3025 32.9869 28.2873 33.0534 28.2687 33.1195C28.2031 33.3536 28.1496 33.5908 28.1087 33.8304C28.0945 33.9138 28.0793 33.9965 28.0682 34.0805C27.9773 34.6902 27.9773 35.3099 28.0682 35.9195ZM29.0395 28.7059C29.0076 28.6904 28.9771 28.6719 28.945 28.6569C28.663 28.5261 28.3728 28.4143 28.0761 28.3224C28.0125 28.3025 27.9481 28.2879 27.8841 28.2699C27.6483 28.2035 27.4091 28.1496 27.1676 28.1085C27.0849 28.0944 27.0031 28.0794 26.9199 28.0683C26.3102 27.9774 25.6902 27.9774 25.0804 28.0683C24.9972 28.0794 24.9154 28.0944 24.8327 28.1085C24.5911 28.1496 24.3521 28.2035 24.1162 28.2699C24.0522 28.2879 23.9876 28.3025 23.9242 28.3224C23.6274 28.4145 23.3371 28.5263 23.0553 28.6569C23.023 28.6719 22.9927 28.6903 22.9608 28.7059C22.7113 28.8275 22.4692 28.9638 22.2359 29.1142C22.2085 29.1319 22.1782 29.1441 22.1511 29.162C22.048 29.0365 21.955 28.9049 21.8652 28.7712C21.8091 28.6877 21.7452 28.6093 21.6944 28.5229C21.5939 28.3447 21.5045 28.1605 21.4266 27.9715C21.3912 27.8898 21.346 27.8126 21.3149 27.7291C21.2434 27.5256 21.1853 27.3176 21.1409 27.1065C21.1233 27.0304 21.0946 26.9576 21.0807 26.8805C20.9732 26.2984 20.9732 25.7016 21.0807 25.1195C21.0945 25.0425 21.1233 24.9696 21.1409 24.8934C21.1854 24.6824 21.2436 24.4744 21.3149 24.2708C21.346 24.1873 21.3912 24.1102 21.4266 24.0285C21.5045 23.8393 21.5939 23.6552 21.6944 23.4771C21.7452 23.3906 21.8091 23.3122 21.8652 23.2288C21.955 23.0951 22.0479 22.9635 22.1511 22.838C22.1761 22.8546 22.2041 22.8654 22.2295 22.8816C23.353 23.6084 24.662 23.9966 26.0002 24.0001C27.3384 23.9966 28.6473 23.6084 29.7709 22.8816C29.7962 22.8653 29.8243 22.8546 29.8493 22.838C29.9523 22.9636 30.0454 23.0952 30.1352 23.2288C30.1913 23.3122 30.2552 23.3906 30.306 23.4771C30.4064 23.6552 30.4959 23.8395 30.5738 24.0285C30.6092 24.1102 30.6544 24.1874 30.6855 24.2708C30.757 24.4744 30.8151 24.6824 30.8595 24.8934C30.8771 24.9696 30.9058 25.0424 30.9197 25.1195C31.0272 25.7016 31.0272 26.2984 30.9197 26.8805C30.9059 26.9575 30.8771 27.0304 30.8595 27.1065C30.815 27.3176 30.7568 27.5256 30.6855 27.7291C30.6544 27.8127 30.6093 27.8898 30.5738 27.9715C30.4959 28.1606 30.4064 28.3447 30.306 28.5229C30.2552 28.6093 30.1913 28.6877 30.1352 28.7712C30.0454 28.9049 29.9525 29.0365 29.8493 29.162C29.8221 29.144 29.7919 29.1318 29.7645 29.1142C29.5309 28.964 29.2889 28.8275 29.0395 28.7059ZM20.0433 47.9459C19.876 48.0765 19.6997 48.1956 19.516 48.3021C19.482 48.3219 19.4481 48.3418 19.414 48.3604C17.6821 49.2687 15.5855 49.1195 13.9997 47.9749C13.9454 47.9346 13.8897 47.8971 13.8373 47.8534C13.8477 47.8374 13.8596 47.8222 13.8691 47.8056C13.8877 47.7797 13.904 47.7523 13.9179 47.7236C13.9593 47.6684 13.9949 47.6092 14.0243 47.5468L14.0257 47.5449C14.0438 47.5175 14.076 47.4628 14.0917 47.4345C14.142 47.3427 14.1918 47.2508 14.2529 47.1298L14.2754 47.079C14.2805 47.0698 14.2834 47.0595 14.2885 47.0501C14.3212 46.9832 14.3505 46.9154 14.3809 46.8475C14.4099 46.7826 14.4452 46.7199 14.4692 46.6542L14.4735 46.6416L14.4902 46.6064C14.5087 46.5693 14.5571 46.4424 14.5713 46.4033L14.5908 46.3477C14.6218 46.2721 14.6464 46.194 14.6641 46.1142L14.6665 46.1059C14.6871 46.0415 14.7057 45.9769 14.7243 45.9117C14.7361 45.8705 14.7513 45.8295 14.7607 45.789C14.7686 45.7656 14.7754 45.7422 14.7817 45.7197H14.7828C14.8139 45.6182 14.8382 45.5148 14.8555 45.41C14.8614 45.3886 14.8853 45.2929 14.8898 45.2714C14.8969 45.237 14.9022 45.202 14.9054 45.1669L14.9195 45.0594C14.9293 44.9882 14.9391 44.9159 14.9376 44.9091C14.9468 44.8505 14.9527 44.7928 14.9635 44.6738C14.9881 44.4501 15.0003 44.225 15 43.9999C14.9997 43.7549 14.9853 43.51 14.957 43.2666C14.957 43.2617 14.9463 43.162 14.9458 43.1572C14.9403 43.0984 14.9324 43.0406 14.9246 42.983L14.9234 42.9736L14.9194 42.9404L14.9052 42.833C14.9021 42.7979 14.8968 42.763 14.8896 42.7284L14.8619 42.6425C14.8449 42.5186 14.8182 42.3961 14.7818 42.2763L14.7784 42.2774L14.7663 42.2354C14.7565 42.1923 14.7404 42.1485 14.728 42.1047C14.708 42.034 14.6887 41.9637 14.6664 41.8936L14.6642 41.8857C14.6458 41.8074 14.6212 41.7306 14.5905 41.6562L14.5851 41.6415C14.5734 41.6132 14.5602 41.5849 14.5455 41.5546C14.5586 41.5791 14.5705 41.6041 14.5811 41.6298C14.5709 41.6034 14.5601 41.5742 14.5586 41.5692C14.5318 41.4969 14.5029 41.4218 14.4707 41.3495L14.4693 41.3456C14.4452 41.2799 14.41 41.217 14.3808 41.1518C14.3506 41.0843 14.3214 41.017 14.2891 40.9505C14.2843 40.9416 14.2813 40.9316 14.2764 40.9228C14.2647 40.8955 14.251 40.8652 14.2428 40.8486C14.192 40.749 14.1422 40.6573 14.0772 40.539C14.0704 40.5264 14.0508 40.4941 14.0308 40.4619C14.0069 40.4161 13.9792 40.3724 13.9483 40.331C13.9275 40.29 13.9043 40.2502 13.8789 40.2118C13.8672 40.1906 13.8542 40.1702 13.8411 40.1499C13.9697 40.0465 14.1038 39.95 14.2427 39.8609C14.3214 39.8094 14.3949 39.7494 14.4764 39.703C14.6591 39.6032 14.8482 39.5152 15.0421 39.4395C15.1224 39.4065 15.1984 39.3636 15.2804 39.3349C15.4536 39.2793 15.6296 39.233 15.8076 39.1962C15.9187 39.1704 16.0266 39.1323 16.1393 39.1138C16.2528 39.0949 16.3681 39.0959 16.4825 39.0845C16.8266 39.0506 17.1733 39.0506 17.5175 39.0845C17.6318 39.0959 17.7471 39.0949 17.8606 39.1138C17.9732 39.1323 18.0811 39.1703 18.1922 39.1962C18.3704 39.233 18.5465 39.2794 18.7196 39.335C18.8016 39.3636 18.8775 39.4068 18.9579 39.4396C19.1519 39.5153 19.3408 39.6033 19.5235 39.703C19.605 39.7494 19.6785 39.8094 19.7573 39.8609C19.897 39.9505 20.0317 40.0476 20.1611 40.1515C20.143 40.1789 20.1306 40.2093 20.1129 40.2369C19.9641 40.4681 19.8291 40.7079 19.7084 40.9549C19.6916 40.9893 19.6718 41.022 19.6558 41.0565C19.5258 41.3372 19.4145 41.6262 19.3229 41.9215C19.3023 41.9869 19.2872 42.0534 19.2686 42.1195C19.203 42.3536 19.1495 42.5908 19.1086 42.8304C19.0943 42.9138 19.0792 42.9965 19.0681 43.0805C18.9771 43.6901 18.9771 44.3098 19.0681 44.9194C19.0793 45.0034 19.0943 45.086 19.1086 45.1695C19.1495 45.409 19.2029 45.6463 19.2686 45.8803C19.2872 45.9463 19.3022 46.013 19.3229 46.0784C19.4146 46.3738 19.5258 46.6628 19.6558 46.9433C19.672 46.9779 19.6918 47.0106 19.7084 47.0449C19.8291 47.292 19.9641 47.5317 20.1129 47.7629C20.1316 47.7921 20.1446 47.8241 20.1637 47.8531C20.1242 47.8858 20.0835 47.9148 20.0433 47.9459ZM20.0395 37.7059C20.0076 37.6904 19.9771 37.6719 19.945 37.6569C19.663 37.5261 19.3728 37.4145 19.0761 37.3224C19.0125 37.3025 18.9481 37.2879 18.8841 37.2699C18.6483 37.2035 18.4091 37.1496 18.1676 37.1085C18.0849 37.0944 18.0031 37.0794 17.9199 37.0683C17.31 36.9774 16.6902 36.9774 16.0804 37.0683C15.9972 37.0794 15.9154 37.0944 15.8327 37.1085C15.5911 37.1496 15.3521 37.2035 15.1162 37.2699C15.0522 37.2879 14.9876 37.3025 14.9242 37.3224C14.6274 37.4145 14.3371 37.5263 14.0553 37.6569C14.0232 37.6719 13.9927 37.6903 13.9608 37.7059C13.7113 37.8275 13.4692 37.9638 13.2359 38.1142C13.2052 38.1339 13.1714 38.1475 13.1409 38.1677L13.1246 38.1483C12.7834 37.7278 12.5129 37.2547 12.3234 36.7476C12.3098 36.7127 12.2962 36.6779 12.2838 36.6432C12.1988 36.401 12.1326 36.1526 12.0858 35.9C12.0783 35.869 12.075 35.8342 12.07 35.8011C11.9766 35.2711 11.9766 34.7288 12.07 34.1987C12.075 34.1657 12.0783 34.1309 12.0858 34.0998C12.1323 33.8489 12.1981 33.6019 12.2825 33.3611C12.2963 33.3224 12.3123 33.2822 12.3277 33.2426C12.4125 33.0168 12.5136 32.7974 12.63 32.5861C12.6486 32.5534 12.6659 32.5206 12.6859 32.4887C12.811 32.2745 12.9517 32.07 13.1071 31.8766L13.1426 31.8331C13.1703 31.8513 13.2012 31.8633 13.2292 31.8812C15.5219 33.3725 18.478 33.3725 20.7707 31.8812C20.796 31.8649 20.824 31.8543 20.8491 31.8376C20.9521 31.9633 21.0452 32.0949 21.1349 32.2284C21.1911 32.3119 21.2549 32.3903 21.3058 32.4768C21.4062 32.6549 21.4956 32.8391 21.5736 33.0281C21.6089 33.1098 21.6542 33.187 21.6852 33.2705C21.7567 33.474 21.8148 33.682 21.8593 33.8931C21.8767 33.9693 21.9055 34.042 21.9195 34.1191C22.027 34.7012 22.027 35.2981 21.9195 35.8801C21.9057 35.9571 21.8768 36.03 21.8593 36.1062C21.8147 36.3172 21.7566 36.5252 21.6852 36.7288C21.6542 36.8124 21.6089 36.8895 21.5736 36.9711C21.4956 37.1603 21.4062 37.3444 21.3058 37.5225C21.2549 37.609 21.1911 37.6874 21.1349 37.7708C21.0452 37.9045 20.9522 38.0361 20.8491 38.1616C20.8219 38.1436 20.7917 38.1314 20.7643 38.1138C20.5309 37.964 20.2889 37.8275 20.0395 37.7059ZM11.8479 29.164L11.842 29.1601C11.81 29.136 11.7766 29.1138 11.7419 29.0937C11.6835 29.0533 11.623 29.0161 11.5607 28.9824C11.4047 28.8831 11.2415 28.7956 11.0724 28.7207C10.9524 28.6547 10.828 28.5969 10.7003 28.5478C10.6313 28.5168 10.5607 28.4893 10.4889 28.4658C10.3765 28.4167 10.2606 28.3759 10.1423 28.3437C9.9993 28.2891 9.85258 28.245 9.70328 28.2118C9.5957 28.1803 9.48613 28.1564 9.37516 28.1406C9.23746 28.1067 9.09719 28.0842 8.95574 28.0732C8.39348 27.9833 7.82137 27.9724 7.25605 28.041C7.18187 28.0443 7.10816 28.0545 7.03586 28.0712C6.87566 28.0895 6.71652 28.1166 6.55926 28.1523L6.52363 28.1611C6.44746 28.1742 6.37199 28.1912 6.29758 28.2118C6.19457 28.2353 6.09543 28.2626 6.00027 28.2939V23.708L6.00672 23.7097C6.06168 23.7278 6.11781 23.7425 6.17453 23.7539C6.29512 23.7871 6.41629 23.8184 6.53687 23.8438C6.61891 23.8649 6.70199 23.8814 6.7859 23.8936C6.89184 23.9168 6.99941 23.9311 7.1077 23.9366C7.21504 23.9552 7.32355 23.966 7.43242 23.9688C7.61676 23.9892 7.80215 23.9994 7.98754 23.9994L8.0002 24.0001C8.17504 24.0001 8.35035 23.9913 8.51828 23.9747C8.60113 23.9766 8.68387 23.9687 8.76484 23.9513C8.95762 23.9349 9.14934 23.9078 9.33906 23.8702L9.47629 23.8399C9.56371 23.8194 9.6516 23.7989 9.73902 23.7725C9.87883 23.7464 10.0158 23.7072 10.1482 23.6554C10.1922 23.6439 10.2353 23.6291 10.2771 23.6114C10.3555 23.591 10.4323 23.5652 10.5072 23.5343C10.6493 23.4796 10.7816 23.4239 10.9056 23.3615C10.9791 23.3326 11.05 23.2977 11.1175 23.2569C11.35 23.1477 11.5734 23.0201 11.7855 22.8751L11.8098 22.8575L11.8466 22.834C12.0059 23.0216 12.1513 23.2206 12.2818 23.4292L12.285 23.4346L12.288 23.4395C12.435 23.6861 12.5607 23.9447 12.6634 24.2127L12.6849 24.2681C13.2146 25.6765 13.0721 27.2496 12.2979 28.54C12.2886 28.5553 12.2792 28.5707 12.2706 28.5863C12.1431 28.7885 12.002 28.9816 11.8479 29.164ZM19.0682 26.9195C19.0795 27.0035 19.0945 27.0861 19.1088 27.1696C19.1496 27.4091 19.203 27.6464 19.2687 27.8804C19.2873 27.9464 19.3023 28.0131 19.323 28.0785C19.4147 28.3739 19.5259 28.6628 19.6559 28.9434C19.6721 28.978 19.6919 29.0107 19.7085 29.045C19.8292 29.2921 19.9642 29.5318 20.113 29.7631C20.1307 29.7907 20.1432 29.8211 20.1612 29.8485C20.0315 29.9527 19.8964 30.0499 19.7563 30.1397C19.678 30.1909 19.6049 30.2504 19.5238 30.2967C19.3409 30.3967 19.1518 30.4849 18.9576 30.5606C18.8774 30.5934 18.8016 30.6363 18.7198 30.6649C18.5458 30.7209 18.3688 30.7675 18.1898 30.8044C18.0796 30.8299 17.9727 30.8677 17.8612 30.8859C17.7452 30.9053 17.6273 30.9045 17.5102 30.9159C17.1709 30.9488 16.8293 30.9488 16.4901 30.9159C16.3731 30.9046 16.2551 30.9053 16.1391 30.8859C16.0275 30.8675 15.9205 30.8299 15.8104 30.8044C15.6313 30.7675 15.4544 30.7209 15.2804 30.6649C15.1987 30.6363 15.1229 30.5934 15.0427 30.5606C14.8484 30.4848 14.6593 30.3967 14.4762 30.2966C14.3951 30.2503 14.322 30.1907 14.2437 30.1396C14.1041 30.0499 13.9694 29.953 13.8401 29.8492C13.8496 29.8345 13.8604 29.8207 13.8692 29.8055C13.8878 29.7796 13.9041 29.7522 13.918 29.7234C13.9594 29.6683 13.995 29.6091 14.0245 29.5467L14.0259 29.5447C14.0439 29.5174 14.0761 29.4627 14.0918 29.4343C14.1421 29.3426 14.1919 29.2507 14.253 29.1297L14.2755 29.0789C14.2806 29.0697 14.2836 29.0593 14.2886 29.05C14.3213 28.9831 14.3506 28.9153 14.3811 28.8474C14.41 28.7824 14.4453 28.7197 14.4693 28.654L14.4736 28.6413L14.4903 28.6062C14.5088 28.569 14.5572 28.4421 14.5714 28.4031L14.5909 28.3474C14.6219 28.2718 14.6465 28.1938 14.6642 28.114L14.6666 28.1057C14.6873 28.0412 14.7058 27.9766 14.7244 27.9115C14.7363 27.8702 14.7514 27.8292 14.7609 27.7888C14.7687 27.7654 14.7755 27.7419 14.7818 27.7194H14.7829C14.8141 27.6179 14.8383 27.5146 14.8557 27.4098C14.8615 27.3884 14.8854 27.2926 14.8899 27.2712C14.897 27.2367 14.9023 27.2018 14.9055 27.1667L14.9196 27.0592C14.9294 26.9879 14.9392 26.9156 14.9377 26.9088C14.947 26.8502 14.9528 26.7926 14.9636 26.6735C14.9883 26.4497 15.0005 26.2248 15.0004 25.9996C15 25.7545 14.9856 25.5096 14.9574 25.2662C14.9574 25.2613 14.9466 25.1617 14.9461 25.1569C14.9406 25.0981 14.9328 25.0403 14.9249 24.9826L14.9237 24.9733L14.9198 24.9401L14.9056 24.8326C14.9024 24.7976 14.8971 24.7627 14.89 24.7281L14.8622 24.6422C14.8452 24.5182 14.8185 24.3958 14.7822 24.276L14.7788 24.277L14.7666 24.2351C14.7569 24.192 14.7407 24.1481 14.7284 24.1043C14.7084 24.0336 14.689 23.9633 14.6668 23.8933L14.6645 23.8854C14.6461 23.807 14.6215 23.7302 14.5908 23.6558L14.5854 23.6412C14.5737 23.6128 14.5606 23.5846 14.5458 23.5542C14.5589 23.5787 14.5709 23.6038 14.5814 23.6295C14.5713 23.6031 14.5605 23.5738 14.5589 23.5689C14.5321 23.4966 14.5033 23.4215 14.4711 23.3491L14.4696 23.3453C14.4305 23.2396 14.386 23.136 14.3363 23.0349L14.3297 23.0217C14.3064 22.9741 14.2827 22.924 14.2606 22.8844C14.1981 22.7484 14.1276 22.6164 14.0492 22.4889L14.0257 22.444C13.9981 22.3884 13.9654 22.3355 13.9281 22.2858L13.9164 22.2702C13.8981 22.2401 13.8756 22.2122 13.8568 22.1824C13.8502 22.1725 13.8459 22.1612 13.8392 22.1513C13.9686 22.0473 14.1034 21.9503 14.243 21.8606C14.3218 21.8092 14.3952 21.7492 14.4768 21.7028C14.6595 21.6029 14.8485 21.5149 15.0425 21.4392C15.1227 21.4063 15.1988 21.3634 15.2807 21.3347C15.4539 21.279 15.6299 21.2327 15.8079 21.1959C15.919 21.1702 16.027 21.1321 16.1397 21.1136C16.2531 21.0947 16.3684 21.0956 16.4828 21.0843C16.827 21.0504 17.1736 21.0504 17.5178 21.0843C17.6322 21.0956 17.7475 21.0947 17.8609 21.1136C17.9736 21.1321 18.0815 21.17 18.1926 21.1959C18.3707 21.2327 18.5468 21.279 18.7199 21.3348C18.802 21.3634 18.8779 21.4065 18.9583 21.4393C19.1522 21.515 19.3411 21.6031 19.5238 21.7028C19.6054 21.7492 19.6789 21.8092 19.7576 21.8606C19.8973 21.9503 20.0321 22.0473 20.1614 22.1513C20.1434 22.1787 20.131 22.209 20.1133 22.2367C19.9645 22.4679 19.8293 22.7077 19.7088 22.9547C19.692 22.989 19.6722 23.0217 19.6561 23.0563C19.5262 23.337 19.4148 23.6259 19.3232 23.9213C19.3027 23.9867 19.2876 24.0532 19.2689 24.1193C19.2033 24.3533 19.1499 24.5905 19.109 24.8302C19.0947 24.9136 19.0796 24.9962 19.0684 25.0802C18.9773 25.6902 18.9773 26.3099 19.0682 26.9195ZM29.1238 13.1085L29.1663 13.1426C29.1462 13.1728 29.1326 13.2065 29.113 13.237C28.9642 13.4683 28.8292 13.708 28.7085 13.955C28.6918 13.9894 28.672 14.0221 28.6559 14.0566C28.5259 14.3373 28.4146 14.6263 28.323 14.9216C28.3025 14.987 28.2873 15.0536 28.2687 15.1197C28.2031 15.3537 28.1496 15.5909 28.1087 15.8305C28.0945 15.914 28.0793 15.9966 28.0682 16.0806C27.9773 16.6902 27.9773 17.3099 28.0682 17.9195C28.0795 18.0035 28.0946 18.0861 28.1087 18.1696C28.1496 18.4091 28.203 18.6464 28.2687 18.8804C28.2873 18.9464 28.3023 19.0131 28.323 19.0785C28.4147 19.3739 28.5259 19.6629 28.6559 19.9434C28.672 19.978 28.6919 20.0107 28.7085 20.045C28.8292 20.2921 28.9642 20.5318 29.113 20.7631C29.1307 20.7907 29.1432 20.8211 29.1612 20.8485C29.0315 20.9527 28.8964 21.0499 28.7563 21.1397C28.678 21.1908 28.6049 21.2504 28.5238 21.2967C28.3409 21.3967 28.1518 21.4849 27.9576 21.5606C27.8774 21.5934 27.8016 21.6363 27.7198 21.6649C27.5458 21.7209 27.3688 21.7675 27.1898 21.8044C27.0796 21.8299 26.9727 21.8677 26.8612 21.8859C26.7452 21.9053 26.6273 21.9045 26.5102 21.9159C26.1709 21.9488 25.8293 21.9488 25.4901 21.9159C25.3731 21.9046 25.2551 21.9053 25.1391 21.8859C25.0275 21.8675 24.9205 21.8299 24.8104 21.8044C24.6313 21.7675 24.4544 21.7209 24.2804 21.6649C24.1987 21.6363 24.1229 21.5934 24.0427 21.5606C23.8484 21.4848 23.6593 21.3967 23.4762 21.2966C23.3951 21.2503 23.322 21.1907 23.2437 21.1396C23.1037 21.0497 22.9686 20.9525 22.8388 20.8484C22.8569 20.8209 22.8693 20.7906 22.887 20.7629C23.0358 20.5317 23.1709 20.292 23.2915 20.0449C23.3083 20.0106 23.3281 19.9779 23.3441 19.9433C23.4741 19.6627 23.5854 19.3737 23.6771 19.0784C23.6976 19.013 23.7127 18.9464 23.7313 18.8803C23.797 18.6463 23.8504 18.4091 23.8913 18.1695C23.9056 18.086 23.9207 18.0034 23.9318 17.9194C24.0228 17.3098 24.0228 16.6901 23.9318 16.0805C23.9206 15.9965 23.9056 15.9138 23.8913 15.8304C23.8504 15.5909 23.7971 15.3536 23.7313 15.1195C23.7127 15.0536 23.6977 14.9869 23.6771 14.9215C23.5853 14.6261 23.4741 14.3372 23.3441 14.0565C23.328 14.022 23.3082 13.9893 23.2915 13.9549C23.1708 13.7079 23.0358 13.4681 22.887 13.2369C22.8684 13.208 22.8555 13.176 22.8364 13.1472C22.8761 13.1142 22.9178 13.0845 22.9582 13.0529C24.7961 11.6954 27.3107 11.7179 29.1238 13.1085ZM32.9317 25.0806C32.9205 24.9966 32.9054 24.914 32.8912 24.8305C32.8503 24.591 32.797 24.3537 32.7312 24.1197C32.7126 24.0537 32.6975 23.987 32.677 23.9216C32.5852 23.6262 32.474 23.3372 32.344 23.0567C32.328 23.0221 32.308 22.9894 32.2914 22.955C32.1707 22.708 32.0357 22.4683 31.8869 22.237C31.8692 22.2094 31.8568 22.179 31.8387 22.1516C31.9681 22.0477 32.103 21.9506 32.2425 21.861C32.3214 21.8095 32.3949 21.7495 32.4764 21.7031C32.6591 21.6033 32.8482 21.5153 33.0421 21.4396C33.1224 21.4067 33.1984 21.3638 33.2804 21.335C33.4536 21.2794 33.6295 21.2331 33.8076 21.1963C33.9187 21.1705 34.0266 21.1324 34.1393 21.1139C34.2528 21.095 34.3681 21.096 34.4825 21.0846C34.8266 21.0508 35.1733 21.0508 35.5175 21.0846C35.6318 21.096 35.7472 21.095 35.8606 21.1139C35.9732 21.1324 36.0811 21.1704 36.1922 21.1963C36.3703 21.2331 36.5465 21.2794 36.7196 21.3352C36.8016 21.3638 36.8775 21.4069 36.9579 21.4397C37.1519 21.5154 37.3408 21.6034 37.5235 21.7031C37.605 21.7495 37.6785 21.8095 37.7573 21.861C37.897 21.9506 38.0317 22.0477 38.1611 22.1516C38.143 22.179 38.1306 22.2094 38.1129 22.237C37.9641 22.4683 37.829 22.708 37.7084 22.955C37.6916 22.9894 37.6718 23.0221 37.6558 23.0567C37.5258 23.3373 37.4145 23.6263 37.3229 23.9216C37.3023 23.987 37.2872 24.0536 37.2687 24.1197C37.2031 24.3537 37.1497 24.5909 37.1088 24.8305C37.0945 24.914 37.0795 24.9966 37.0682 25.0806C36.9773 25.6902 36.9773 26.3099 37.0682 26.9195C37.0795 27.0035 37.0945 27.0861 37.1088 27.1696C37.1497 27.4091 37.203 27.6464 37.2687 27.8804C37.2873 27.9464 37.3023 28.0131 37.3229 28.0785C37.4146 28.3739 37.5258 28.6628 37.6558 28.9434C37.6718 28.978 37.6918 29.0107 37.7084 29.045C37.8291 29.2921 37.9641 29.5318 38.1129 29.7631C38.1306 29.7907 38.143 29.8211 38.1611 29.8485C38.0314 29.9527 37.8963 30.0499 37.7562 30.1397C37.6779 30.1909 37.6048 30.2504 37.5237 30.2967C37.3408 30.3967 37.1516 30.4849 36.9575 30.5606C36.8773 30.5934 36.8015 30.6363 36.7197 30.6649C36.5457 30.7209 36.3687 30.7675 36.1896 30.8044C36.0795 30.8299 35.9726 30.8677 35.8611 30.8859C35.745 30.9053 35.6271 30.9045 35.5101 30.9159C35.1708 30.9488 34.8292 30.9488 34.49 30.9159C34.373 30.9046 34.255 30.9053 34.139 30.8859C34.0274 30.8675 33.9204 30.8299 33.8103 30.8044C33.6312 30.7675 33.4543 30.7209 33.2802 30.6649C33.1986 30.6363 33.1227 30.5934 33.0426 30.5606C32.8483 30.4848 32.6591 30.3967 32.4761 30.2966C32.395 30.2503 32.3219 30.1907 32.2436 30.1396C32.1036 30.0497 31.9684 29.9525 31.8387 29.8484C31.8568 29.8209 31.8692 29.7906 31.8869 29.7629C32.0357 29.5317 32.1708 29.292 32.2914 29.0449C32.3082 29.0106 32.328 28.9779 32.344 28.9433C32.474 28.6627 32.5853 28.3737 32.677 28.0784C32.6975 28.013 32.7126 27.9464 32.7312 27.8803C32.7968 27.6463 32.8503 27.4091 32.8912 27.1695C32.9055 27.086 32.9206 27.0034 32.9317 26.9194C33.0227 26.3099 33.0227 25.6902 32.9317 25.0806ZM47.1286 13.1121L47.1661 13.1421C47.1523 13.1631 47.1429 13.1864 47.1292 13.2075C47.1203 13.2216 47.1064 13.2388 47.0986 13.2519C47.055 13.3083 47.0171 13.3688 46.9853 13.4326L46.9751 13.4541C46.9541 13.4854 46.9258 13.5341 46.9097 13.5634C46.8584 13.6562 46.8072 13.75 46.7648 13.8359C46.7609 13.8427 46.7443 13.8808 46.7316 13.9091C46.7269 13.9172 46.7245 13.9265 46.7199 13.9347C46.6828 14.0102 46.649 14.0865 46.6148 14.1634C46.5877 14.2248 46.5536 14.2838 46.531 14.3456L46.5296 14.3495C46.4944 14.4286 46.4636 14.5116 46.4372 14.5897C46.3926 14.6847 46.3587 14.7841 46.3362 14.8866L46.3352 14.8899C46.3141 14.9559 46.2948 15.0222 46.2757 15.0887C46.2644 15.1284 46.2497 15.1676 46.2404 15.2068C46.2302 15.2371 46.2214 15.2674 46.2135 15.2986H46.2115C46.1834 15.3928 46.1614 15.4887 46.1455 15.5857C46.1237 15.667 46.1068 15.7495 46.0948 15.8327L46.0811 15.9353C46.0709 16.0095 46.0606 16.0856 46.0626 16.0906C46.0533 16.1491 46.0475 16.2068 46.0367 16.3259C46.0121 16.5496 45.9999 16.7746 46.0001 16.9997C46.0006 17.2447 46.0149 17.4897 46.0431 17.7331L46.0539 17.8376C46.0593 17.8983 46.0676 17.9584 46.0757 18.0181L46.0765 18.0254L46.0812 18.0642L46.1085 18.2625C46.1182 18.3123 46.1315 18.3572 46.1373 18.3513C46.1541 18.4753 46.1806 18.5978 46.2164 18.7175L46.2198 18.7166L46.234 18.7644C46.2436 18.8075 46.2598 18.8513 46.2721 18.8951C46.2921 18.9656 46.3112 19.0359 46.3335 19.1057L46.3352 19.1111C46.3499 19.1883 46.3734 19.2636 46.405 19.3357C46.4519 19.4637 46.5002 19.5926 46.531 19.6541C46.5546 19.7189 46.5895 19.7807 46.6179 19.8448C46.6491 19.9143 46.6792 19.9838 46.7126 20.0523C46.7174 20.0612 46.7202 20.0711 46.7252 20.0799C46.7364 20.1053 46.7491 20.1326 46.756 20.1472C46.8073 20.2498 46.8585 20.3435 46.923 20.4607L46.9543 20.5134C46.9823 20.573 47.0157 20.6298 47.0539 20.6834C47.0852 20.7411 47.1204 20.7967 47.1595 20.8497C47.0315 20.9522 46.8982 21.0481 46.7603 21.1369C46.6806 21.189 46.6062 21.2497 46.5237 21.2968C46.3402 21.3972 46.1505 21.4856 45.9556 21.5616C45.8763 21.5939 45.8014 21.6365 45.7206 21.6647C45.5445 21.7215 45.3653 21.7686 45.184 21.8059C45.0761 21.8309 44.9713 21.8679 44.862 21.8859C44.7433 21.9058 44.6225 21.905 44.5027 21.9165C44.1632 21.9489 43.8214 21.9485 43.482 21.9152C43.368 21.9039 43.253 21.9048 43.14 21.8861C43.0259 21.8673 42.9163 21.8289 42.8037 21.8025C42.6272 21.7661 42.453 21.7201 42.2814 21.6652C42.1979 21.6361 42.1206 21.5923 42.0388 21.5588C41.8462 21.4835 41.6586 21.3961 41.477 21.297C41.3952 21.2503 41.3214 21.1902 41.2424 21.1385C41.103 21.049 40.9683 20.9522 40.8392 20.8484C40.8572 20.8209 40.8696 20.7906 40.8873 20.7629C41.0362 20.5317 41.1713 20.292 41.2919 20.0449C41.3086 20.0106 41.3284 19.9779 41.3445 19.9433C41.4745 19.6627 41.5858 19.3737 41.6774 19.0784C41.6979 19.013 41.713 18.9464 41.7316 18.8803C41.7972 18.6463 41.8506 18.4091 41.8915 18.1695C41.9058 18.086 41.9209 18.0034 41.9321 17.9194C42.023 17.3098 42.023 16.6901 41.9321 16.0805C41.9208 15.9965 41.9058 15.9138 41.8915 15.8304C41.8506 15.5909 41.7973 15.3536 41.7316 15.1195C41.7129 15.0536 41.6979 14.9869 41.6774 14.9215C41.5857 14.6261 41.4745 14.3371 41.3445 14.0565C41.3284 14.022 41.3085 13.9893 41.2919 13.9549C41.1712 13.7079 41.0362 13.4681 40.8873 13.2369C40.8687 13.208 40.8558 13.176 40.8367 13.1472C40.8761 13.1145 40.9178 13.0846 40.9582 13.0533C42.7976 11.6939 45.3153 11.7178 47.1286 13.1121ZM51.8262 14.8964C51.9238 14.916 52.0216 14.9296 52.125 14.9424C52.7042 15.0189 53.2909 15.0192 53.8702 14.9434C53.9141 14.9375 53.9571 14.9326 54 14.9268V19.0693C53.9466 19.0594 53.8923 19.0545 53.838 19.0547C53.8213 19.0518 53.797 19.0498 53.7715 19.0468C53.608 19.0245 53.4434 19.012 53.2784 19.0097C52.9209 18.9845 52.5617 18.9979 52.2071 19.0497V19.0506C52.1556 19.0529 52.1043 19.0592 52.0538 19.0691C51.9033 19.0814 51.754 19.1059 51.6075 19.1424C51.5959 19.1441 51.5902 19.1467 51.5788 19.1487C51.4976 19.1618 51.4172 19.1795 51.338 19.2019C51.1776 19.2365 51.02 19.2827 50.8663 19.3405C50.7964 19.3567 50.7278 19.3783 50.6613 19.405C50.5437 19.4441 50.4283 19.4895 50.3155 19.5407C50.265 19.559 50.2158 19.5804 50.1681 19.6051C50.0861 19.6368 50.007 19.6757 49.9318 19.7214L49.8351 19.7692L49.8317 19.7709L49.8116 19.7809L49.812 19.7814C49.7782 19.7965 49.7455 19.8136 49.714 19.8327C49.6042 19.8809 49.4984 19.9377 49.3976 20.0026C49.3202 20.0515 49.2408 20.1038 49.152 20.1634C48.8092 19.751 48.5344 19.2867 48.3378 18.788L48.316 18.7318C47.8952 17.6165 47.8949 16.386 48.3152 15.2704L48.3156 15.2693C48.3221 15.2511 48.3299 15.2322 48.3371 15.2131C48.4381 14.9515 48.5607 14.699 48.7038 14.4578C48.7124 14.4436 48.7214 14.4293 48.7296 14.4148L48.7325 14.4101C48.8589 14.2089 48.9992 14.0169 49.1525 13.8353L49.1731 13.8483C49.262 13.917 49.3572 13.9771 49.4573 14.0279C49.6384 14.1448 49.8292 14.246 50.0276 14.3306C50.1082 14.3722 50.1914 14.4087 50.2766 14.44C50.3968 14.4947 50.5169 14.5405 50.6467 14.5874C50.721 14.6183 50.7978 14.6428 50.8762 14.6606C51.0136 14.711 51.1538 14.7534 51.2961 14.7877C51.3971 14.8171 51.4998 14.8398 51.6037 14.856C51.6748 14.8731 51.748 14.8858 51.8262 14.8964ZM50.9459 25.166C50.9445 25.1544 50.9448 25.1413 50.9436 25.1298C50.9234 24.943 50.893 24.7576 50.8527 24.5741C50.8499 24.5574 50.8463 24.5487 50.8432 24.5329L50.8353 24.4986C50.8227 24.4399 50.81 24.377 50.798 24.3379C50.7702 24.2197 50.7361 24.1034 50.6957 23.989C50.6702 23.9046 50.6468 23.8198 50.6182 23.7365C50.6098 23.7116 50.6054 23.6889 50.5948 23.6631C50.5537 23.5385 50.5057 23.4163 50.4513 23.2969C50.4426 23.2742 50.4296 23.2531 50.4203 23.2304C50.3814 23.1406 50.3391 23.0527 50.2964 22.9645C50.2896 22.952 50.2853 22.9381 50.2784 22.9258C50.2219 22.7964 50.1563 22.6712 50.0822 22.5511C50.044 22.484 50.0036 22.4184 49.9633 22.3526C49.9207 22.2798 49.8794 22.2058 49.8337 22.1365L49.8445 22.1274C49.9107 22.0731 49.9852 22.0173 50.0802 21.9503C50.2082 21.8633 50.3342 21.7765 50.4825 21.6827C50.5226 21.6598 50.5645 21.6399 50.6076 21.6232C50.6511 21.6036 50.6931 21.5811 50.7336 21.5558L50.757 21.5441C50.7736 21.5363 50.8449 21.4884 50.8605 21.4797C50.9247 21.4609 50.9869 21.4357 51.046 21.4044C51.0773 21.3927 51.1075 21.379 51.1377 21.3645C51.2027 21.3346 51.2696 21.3092 51.3379 21.2883L51.3643 21.2786L51.3711 21.2775C51.4299 21.265 51.4874 21.2469 51.543 21.2238C51.6136 21.1949 51.6869 21.1726 51.7618 21.1574C51.7773 21.1535 51.8477 21.1349 51.8789 21.1261C51.9254 21.1221 51.9714 21.1146 52.0166 21.1036C52.1011 21.0815 52.1874 21.0665 52.2745 21.0587C52.325 21.0551 52.3752 21.0478 52.4248 21.0373C52.4473 21.0353 52.4697 21.0334 52.4922 21.0305C52.6871 21.0058 52.8836 20.9957 53.08 21.0001C53.2236 21.0216 53.3417 21.006 53.5605 21.0353L53.5966 21.0392C53.6362 21.0479 53.6763 21.0538 53.7167 21.0567C53.7422 21.0613 53.7678 21.0641 53.7934 21.0668C53.8448 21.0715 53.8956 21.0809 53.9452 21.0948C53.9628 21.0987 53.9813 21.1036 53.9999 21.1075V30.8973L53.9736 30.9033C53.8587 30.9295 53.7422 30.9478 53.6249 30.958C53.2079 31.0095 52.7861 31.0091 52.369 30.957C52.3247 30.9536 52.2807 30.9474 52.2372 30.9384C52.1991 30.9297 52.0907 30.9121 52.0517 30.9072C52 30.8934 51.9475 30.8833 51.8944 30.8769L51.7763 30.8467C51.6886 30.8258 51.6025 30.7991 51.5185 30.7666C51.4853 30.754 51.4169 30.7354 51.3681 30.7227L51.3515 30.7168L51.3066 30.7001C51.2697 30.6877 51.2359 30.6738 51.2022 30.6604C51.1734 30.649 51.137 30.6336 51.1013 30.6185C51.0385 30.5865 50.9737 30.5586 50.9071 30.5352C50.7604 30.4695 50.6181 30.3941 50.4814 30.3096C50.4537 30.29 50.4235 30.2742 50.3915 30.2627C50.3527 30.2312 50.3119 30.2023 50.2694 30.1758C50.1883 30.1269 50.1073 30.0703 50.0282 30.0137C49.9622 29.9677 49.8999 29.9125 49.8363 29.8599C49.8911 29.777 49.9347 29.7032 49.9712 29.6351C50.0634 29.4841 50.1456 29.3284 50.226 29.1711C50.2416 29.1386 50.264 29.1083 50.2783 29.0753C50.2867 29.0602 50.2921 29.0434 50.3003 29.0279C50.3414 28.9426 50.3822 28.8575 50.4198 28.7707C50.4293 28.7477 50.4423 28.7262 50.4513 28.7032C50.5057 28.5838 50.5537 28.4616 50.5948 28.337C50.6054 28.3112 50.6098 28.2885 50.6182 28.2636C50.6446 28.1869 50.6665 28.109 50.6902 28.0313C50.729 27.9232 50.7617 27.8131 50.7882 27.7013C50.8061 27.6384 50.8198 27.5724 50.8338 27.5065L50.8434 27.4657C50.8459 27.452 50.8503 27.44 50.8526 27.426C50.8925 27.2441 50.9225 27.0602 50.9425 26.8752C50.9439 26.8642 50.9434 26.8518 50.9447 26.8406C51.0182 26.2848 51.0186 25.7218 50.9459 25.166ZM50.2784 11.0752L50.2879 11.0549C50.3446 10.9542 50.3935 10.8492 50.4338 10.7409C50.4389 10.7281 50.4463 10.7161 50.4513 10.7032C50.4617 10.6806 50.4697 10.6539 50.4797 10.6307C50.5057 10.5682 50.5258 10.5175 50.5411 10.4739C50.5585 10.4275 50.5784 10.3859 50.5948 10.3369C50.6216 10.2702 50.6436 10.2016 50.6602 10.1318C50.7133 9.99153 50.7561 9.84763 50.7882 9.70114C50.8148 9.61067 50.8363 9.51868 50.8526 9.42575C50.8925 9.24388 50.9225 9.06001 50.9425 8.87497C51.019 8.29583 51.0194 7.70907 50.9436 7.12981C50.9234 6.94313 50.893 6.75763 50.8527 6.57411C50.8393 6.49431 50.821 6.41544 50.798 6.33774L50.7945 6.32497L50.794 6.32309L50.7931 6.32016C50.7685 6.20954 50.7394 6.10173 50.7061 6.00001H54V12.8973L53.9737 12.9033C53.8588 12.9297 53.7423 12.9478 53.625 12.958C53.208 13.0095 52.7862 13.0091 52.3691 12.957C52.3248 12.9536 52.2808 12.9474 52.2373 12.9384C52.1992 12.9297 52.0908 12.9121 52.0518 12.9072C52.0001 12.8934 51.9476 12.8834 51.8945 12.8769L51.7764 12.8467C51.6888 12.8258 51.6026 12.7991 51.5186 12.7667C51.4854 12.754 51.417 12.7354 51.3682 12.7227L51.3516 12.7168C51.2696 12.6866 51.1866 12.6573 51.044 12.5947C51.002 12.5791 50.9649 12.5634 50.8643 12.5156C50.7309 12.4584 50.6028 12.3895 50.4815 12.3096C50.4538 12.29 50.4236 12.2742 50.3916 12.2627C50.3528 12.2312 50.312 12.2023 50.2695 12.1758C50.1884 12.1269 50.1074 12.0703 50.0283 12.0137C49.9623 11.9677 49.9 11.9125 49.8364 11.8599C49.8934 11.7757 49.9458 11.6885 49.9933 11.5986C50.1023 11.4321 50.1975 11.257 50.2784 11.0752ZM39.043 7.36724C39.0528 7.25251 39.0706 7.1386 39.0963 7.02645C39.1026 7.00208 39.1168 6.92485 39.1211 6.90048L39.1548 6.77345C39.175 6.68673 39.2012 6.60153 39.2335 6.51856C39.2466 6.48434 39.2648 6.41802 39.277 6.36915L39.2833 6.35157C39.3135 6.2686 39.3434 6.18458 39.4088 6.03317C39.413 6.02192 39.4196 6.01138 39.4241 6.00001H48.5758C48.5802 6.01126 48.5868 6.02192 48.5909 6.03317C48.5966 6.04864 48.6038 6.06317 48.6104 6.07817L48.6193 6.10056C48.6559 6.18341 48.6857 6.26626 48.7156 6.34806L48.7209 6.36329L48.7264 6.38122C48.7364 6.42798 48.7499 6.47391 48.7667 6.51856C48.7989 6.60212 48.8255 6.68766 48.8463 6.77485C48.8533 6.80356 48.8727 6.87399 48.878 6.89063C48.8829 6.93645 48.8915 6.98181 48.9034 7.02634C48.9298 7.14118 48.948 7.25766 48.9582 7.37497C49.0144 7.79134 49.0142 8.21356 48.9571 8.62981C48.9474 8.74548 48.9295 8.86044 48.9034 8.97352C48.8985 8.99403 48.8829 9.07993 48.8791 9.10055L49.8596 9.29591L48.8468 9.2236C48.826 9.31126 48.7993 9.39739 48.7668 9.48141C48.7547 9.51341 48.7402 9.56837 48.7287 9.61384L48.7238 9.62989L48.7183 9.64489L48.717 9.64841L48.7019 9.68907C48.6882 9.7302 48.6728 9.76806 48.6573 9.80579C48.6393 9.85161 48.6195 9.90083 48.591 9.96669C48.574 10.0166 48.5521 10.0647 48.5256 10.1102C48.4961 10.1584 48.4709 10.209 48.4504 10.2616C48.4062 10.3629 48.3527 10.4596 48.2902 10.5508C48.2069 10.6952 48.1154 10.8348 48.0157 10.9688C47.9676 11.0368 47.9105 11.1025 47.8558 11.1688L47.8439 11.1611C47.8114 11.1368 47.7774 11.1143 47.7423 11.0937C47.7034 11.0668 47.6621 11.0434 47.6211 11.0193C47.5192 10.9574 47.4145 10.9021 47.3098 10.8456C47.2455 10.8115 47.1802 10.7695 47.1184 10.7411C47.1077 10.7352 47.0941 10.7293 47.0804 10.7235C47.0596 10.7115 47.043 10.7074 47.0226 10.6966C46.9402 10.657 46.858 10.6178 46.7743 10.5813C46.7522 10.5724 46.725 10.557 46.7039 10.5486L46.6983 10.5469C46.5831 10.4945 46.4654 10.4482 46.3454 10.4083C46.3238 10.3991 46.293 10.3923 46.2681 10.3836C46.1883 10.3562 46.1072 10.3333 46.0264 10.3086C45.9205 10.2704 45.8127 10.2382 45.7033 10.212C45.655 10.1987 45.6023 10.1905 45.5527 10.1789C45.5052 10.168 45.4577 10.1576 45.41 10.1476C45.4001 10.1461 45.392 10.1428 45.382 10.1415L45.3809 10.1405C45.2784 10.119 45.1758 10.1005 45.0733 10.0858C44.9968 10.0647 44.9178 10.0541 44.8384 10.0545L44.8318 10.0538C44.6582 10.0329 44.4828 10.0241 44.307 10.0164C44.0929 10.005 43.8783 10.0055 43.6643 10.0179C43.4857 10.0266 43.3077 10.0376 43.1315 10.0597C43.1055 10.0629 43.0797 10.0642 43.0537 10.0691C42.9004 10.0819 42.7484 10.1071 42.5991 10.1443L42.5697 10.1509C42.5304 10.1592 42.4916 10.1686 42.4525 10.1775L42.3931 10.1912L42.3379 10.2029V10.2019C42.2219 10.2292 42.1075 10.2628 41.9951 10.3027C41.9092 10.3284 41.823 10.3521 41.7381 10.3812C41.712 10.3899 41.6911 10.3935 41.663 10.405C41.5402 10.4458 41.4195 10.493 41.3017 10.5465L41.2963 10.5485C41.2777 10.5559 41.2532 10.5706 41.2337 10.5784C41.1173 10.6288 41.0042 10.6853 40.8905 10.7419L40.8803 10.7468L40.8364 10.7683C40.7943 10.787 40.7534 10.8082 40.7138 10.8318C40.6822 10.8465 40.6589 10.8626 40.6286 10.8776C40.5659 10.9122 40.5012 10.9429 40.4395 10.9794C40.4322 10.9841 40.4213 10.9883 40.4144 10.9929C40.3666 11.0213 40.3138 11.0554 40.262 11.0916C40.2209 11.1137 40.1825 11.1379 40.1453 11.1626C40.0723 11.0721 39.997 10.9828 39.9339 10.8874C39.9129 10.8556 39.8901 10.8249 39.8656 10.7957C39.7993 10.7093 39.7409 10.6172 39.6913 10.5203C39.6355 10.4378 39.5877 10.3501 39.5487 10.2586C39.5283 10.2083 39.5042 10.1597 39.4764 10.1131C39.4387 10.0446 39.4069 9.97302 39.3813 9.89919C39.3432 9.81517 39.3134 9.73114 39.2787 9.63645C39.2679 9.58349 39.2527 9.53157 39.2332 9.48118C39.201 9.39821 39.1748 9.31302 39.1546 9.2263C39.1507 9.20966 39.1263 9.11989 39.1214 9.10325C39.1159 9.05942 39.1075 9.01606 39.096 8.97341C39.0701 8.85927 39.052 8.74348 39.0419 8.62677C38.9857 8.20899 38.9861 7.78524 39.043 7.36724ZM31.9913 11.6006C32.1011 11.4338 32.197 11.258 32.2779 11.0753C32.3152 11.0086 32.3489 10.9415 32.3771 10.8803L32.3774 10.8795C32.4052 10.8191 32.4275 10.7644 32.442 10.7218C32.4841 10.6286 32.5198 10.532 32.5564 10.4343C32.5662 10.4079 32.5776 10.3835 32.5875 10.3566C32.6193 10.2804 32.6444 10.2016 32.6628 10.1213C32.7106 9.9913 32.7504 9.85864 32.782 9.72376L32.7827 9.72071L32.7829 9.71989C32.7878 9.70255 32.7907 9.6838 32.7954 9.66645C32.8164 9.58934 32.8375 9.51224 32.8517 9.4288C32.8929 9.24552 32.9233 9.06001 32.9425 8.8731C33.019 8.29559 33.0194 7.71048 32.9434 7.13286C32.9238 6.94407 32.893 6.75657 32.8517 6.5713C32.8379 6.48845 32.8188 6.40665 32.7945 6.32614C32.7696 6.21774 32.7393 6.10841 32.7041 6.00001H37.2959C37.2617 6.10349 37.2348 6.20122 37.2173 6.28032C37.1888 6.3763 37.1657 6.4738 37.1485 6.57235C37.1072 6.75528 37.0769 6.94056 37.0577 7.127C36.9811 7.7045 36.9808 8.28962 37.0566 8.86724C37.0763 9.05567 37.1069 9.24294 37.1484 9.42774C37.1618 9.51095 37.1809 9.59321 37.2054 9.67384C37.24 9.82442 37.2837 9.9729 37.3363 10.1182C37.3504 10.1932 37.3734 10.2663 37.4046 10.3359C37.4515 10.4639 37.4999 10.5928 37.5306 10.6543C37.5834 10.7991 37.6473 10.9395 37.722 11.0742C37.7916 11.2354 37.8747 11.3902 37.9706 11.5371C38.0332 11.6522 38.0956 11.7544 38.1596 11.8495C36.307 13.3144 33.6906 13.3138 31.8386 11.8484C31.8941 11.7634 31.9455 11.6801 31.9913 11.6006ZM31.1737 13.8505C31.191 13.8631 31.2084 13.8755 31.2261 13.8867C31.2974 13.9392 31.3734 13.9849 31.4532 14.0235C31.4815 14.0436 31.5113 14.0619 31.542 14.0782L31.8457 14.2443C31.9101 14.2828 31.9777 14.3155 32.0479 14.3419L32.0499 14.3428C32.1486 14.3951 32.2513 14.4395 32.357 14.4756L32.5577 14.5556C32.582 14.5654 32.6065 14.5732 32.6309 14.582C32.7128 14.6166 32.7975 14.6436 32.8843 14.6631C32.9901 14.7008 33.0979 14.7332 33.207 14.7598C33.2368 14.7695 33.2671 14.7783 33.2973 14.7861L33.2969 14.7881C33.4022 14.8188 33.5096 14.8423 33.6182 14.8584C33.6324 14.8614 33.647 14.8643 33.6612 14.8663L33.8082 14.8976C33.8248 14.8996 33.8448 14.9025 33.8658 14.9044C33.9479 14.92 34.0255 14.9308 34.0894 14.9375C34.148 14.9463 34.2066 14.9522 34.3267 14.963C34.5502 14.9883 34.7751 15.0007 35 15C35.2448 14.9999 35.4893 14.9856 35.7324 14.957C35.7392 14.957 35.8408 14.9462 35.8471 14.9453C35.9751 14.9326 36.1029 14.9121 36.2216 14.8896C36.2646 14.8838 36.3071 14.877 36.3388 14.87L36.4394 14.8475L36.4638 14.8426L36.4667 14.8416L36.4764 14.8386C36.572 14.8227 36.6665 14.8002 36.7591 14.7713L36.7581 14.7683L36.7679 14.7654C36.8853 14.7375 37.0011 14.7035 37.1151 14.6638C37.1903 14.6461 37.2641 14.6233 37.3363 14.5955C37.3681 14.5847 37.4008 14.572 37.4315 14.5583C37.4588 14.5505 37.4852 14.5417 37.5115 14.532L37.6634 14.4655C37.7664 14.4277 37.8673 14.3843 37.9656 14.3357C38.012 14.3147 38.0572 14.2913 38.1009 14.2654C38.1209 14.2556 38.1405 14.2468 38.1511 14.2419C38.2834 14.1755 38.4157 14.1081 38.5394 14.0329C38.555 14.0241 38.5702 14.0162 38.5853 14.0065C38.6322 13.9792 38.6781 13.9499 38.7352 13.9089C38.7638 13.8936 38.7862 13.8742 38.813 13.8575C38.8246 13.85 38.8375 13.8451 38.8491 13.8375C38.9521 13.9631 39.0452 14.0947 39.1349 14.2283C39.1911 14.3118 39.2549 14.3902 39.3058 14.4766C39.4062 14.6548 39.4956 14.839 39.5736 15.028C39.6089 15.1097 39.6542 15.1869 39.6852 15.2704C39.7567 15.4739 39.8148 15.6819 39.8593 15.893C39.8767 15.9691 39.9055 16.0419 39.9194 16.119C40.0268 16.7011 40.0268 17.2979 39.9194 17.88C39.9055 17.957 39.8767 18.0299 39.8593 18.1061C39.8147 18.3171 39.7566 18.5251 39.6852 18.7287C39.6542 18.8122 39.6089 18.8893 39.5736 18.971C39.4956 19.1602 39.4062 19.3443 39.3058 19.5224C39.2549 19.6089 39.1911 19.6873 39.1349 19.7707C39.0452 19.9044 38.9522 20.0359 38.8491 20.1615C38.8219 20.1435 38.7917 20.1313 38.7643 20.1137C38.5309 19.9634 38.2888 19.827 38.0393 19.7054C38.0075 19.69 37.977 19.6715 37.9449 19.6565C37.6629 19.5257 37.3727 19.414 37.0759 19.3219C37.0124 19.3021 36.948 19.2874 36.884 19.2694C36.6482 19.2031 36.409 19.1491 36.1675 19.108C36.0848 19.094 36.003 19.079 35.9198 19.0678C35.31 18.9769 34.6901 18.9769 34.0803 19.0678C33.9971 19.079 33.9153 19.094 33.8325 19.108C33.591 19.1491 33.352 19.2031 33.1161 19.2694C33.0521 19.2874 32.9875 19.3021 32.9241 19.3219C32.6273 19.414 32.337 19.5258 32.0552 19.6565C32.0229 19.6715 31.9926 19.6899 31.9607 19.7054C31.7112 19.8271 31.4691 19.9634 31.2358 20.1137C31.2084 20.1314 31.1781 20.1436 31.1509 20.1615C31.0479 20.036 30.9549 19.9044 30.8651 19.7707C30.809 19.6873 30.7451 19.6089 30.6943 19.5224C30.5938 19.3443 30.5044 19.16 30.4265 18.971C30.3911 18.8893 30.3459 18.8121 30.3148 18.7287C30.2433 18.5251 30.1852 18.3171 30.1408 18.1061C30.1233 18.0299 30.0945 17.9571 30.0805 17.88C29.9731 17.2979 29.9731 16.7011 30.0805 16.119C30.0944 16.042 30.1232 15.9691 30.1408 15.893C30.1853 15.6819 30.2434 15.4739 30.3148 15.2704C30.3459 15.1868 30.391 15.1097 30.4265 15.028C30.5044 14.8389 30.5938 14.6548 30.6943 14.4766C30.7451 14.3902 30.809 14.3118 30.8651 14.2283C30.9549 14.0946 31.0478 13.963 31.1509 13.8375L31.1737 13.8505ZM21.043 7.36724C21.0528 7.25251 21.0706 7.1386 21.0963 7.02645C21.103 7.00102 21.1163 6.92778 21.1212 6.90141L21.1548 6.77345C21.175 6.68673 21.2013 6.60153 21.2335 6.51856C21.2496 6.47157 21.2634 6.42388 21.2746 6.37559L21.2759 6.37114L21.2789 6.36235L21.2827 6.35263L21.3138 6.26942C21.3211 6.24821 21.3295 6.22782 21.3373 6.20755C21.3563 6.15868 21.3789 6.10302 21.4116 6.02743L21.4125 6.02497L21.424 6.00013H30.5772C30.5897 6.03013 30.6019 6.05954 30.621 6.10852C30.6586 6.18962 30.6875 6.27165 30.7211 6.36341C30.7319 6.41638 30.7471 6.46829 30.7666 6.51868C30.7988 6.60165 30.825 6.68684 30.8452 6.77356C30.8491 6.7902 30.8736 6.88196 30.8784 6.8986C30.8841 6.94173 30.8927 6.9845 30.9038 7.02657C30.9298 7.14071 30.9479 7.25661 30.958 7.37321C31.0144 7.79122 31.0141 8.21497 30.9571 8.63298C30.9474 8.7477 30.9296 8.86161 30.9039 8.97376C30.8971 8.99919 30.8839 9.07243 30.8789 9.0988L30.8453 9.22677C30.8252 9.31349 30.7989 9.39868 30.7667 9.48165C30.7536 9.51587 30.7354 9.5822 30.7232 9.63106L30.7169 9.64864L30.6852 9.73384C30.6625 9.79454 30.6359 9.86356 30.5884 9.9729C30.5712 10.0216 30.5494 10.0688 30.5235 10.1135C30.4957 10.1602 30.4716 10.2088 30.4512 10.2591C30.4073 10.3599 30.3538 10.4562 30.2916 10.5468L30.2872 10.554C30.2527 10.6132 30.2078 10.6738 30.1711 10.7317C30.1224 10.8087 30.0798 10.8838 30.017 10.9671C29.968 11.0361 29.9107 11.1022 29.8554 11.1691L29.8417 11.1605C29.8097 11.1363 29.7763 11.1142 29.7416 11.094C29.7024 11.0665 29.6603 11.0427 29.6185 11.0183C29.5206 10.959 29.42 10.9058 29.3195 10.8513C29.2519 10.8151 29.183 10.7713 29.1187 10.7414C29.1079 10.7356 29.0952 10.7297 29.082 10.7238C28.9604 10.6562 28.8339 10.5977 28.7036 10.549L28.6982 10.547C28.583 10.4946 28.4652 10.4483 28.3452 10.4084C28.3191 10.3969 28.2835 10.3883 28.2524 10.378C28.182 10.3539 28.1104 10.3344 28.0393 10.3125C27.9292 10.2728 27.817 10.2393 27.7032 10.2121C27.6538 10.1985 27.5998 10.19 27.5488 10.1782C27.5036 10.1679 27.4585 10.1578 27.413 10.1484C27.4022 10.1467 27.3933 10.1433 27.3823 10.1418L27.3809 10.1407C27.2774 10.1193 27.1739 10.0997 27.0699 10.086C26.9945 10.0648 26.9167 10.0543 26.8384 10.0547L26.8339 10.0543C26.6107 10.0274 26.3854 10.0138 26.1589 10.0085C26.054 10.0048 25.9462 10.0048 25.8414 10.0085C25.5925 10.0141 25.3439 10.0331 25.097 10.0655C25.0816 10.0679 25.0664 10.0671 25.0509 10.0703C24.9077 10.0845 24.7656 10.1079 24.6256 10.1406C24.6149 10.1421 24.6044 10.1453 24.5937 10.1472C24.5465 10.1569 24.4996 10.167 24.4526 10.1776L24.3932 10.1913L24.338 10.2031V10.2021C24.2168 10.2304 24.0973 10.2654 23.9801 10.307C23.9008 10.331 23.8211 10.3528 23.7427 10.3797C23.7155 10.3887 23.6907 10.3937 23.6622 10.4052C23.5397 10.4461 23.4194 10.4933 23.3018 10.5468L23.2964 10.5488C23.1511 10.6022 23.0111 10.6689 22.878 10.748L22.8316 10.7714C22.8058 10.7825 22.7805 10.7949 22.7559 10.8086C22.6923 10.838 22.6306 10.8711 22.5709 10.9077C22.5313 10.9301 22.4901 10.949 22.4511 10.972L22.4482 10.9736C22.437 10.9794 22.4257 10.9862 22.4145 10.9931C22.3667 11.0215 22.3135 11.0556 22.2612 11.0927C22.2207 11.1149 22.1822 11.1382 22.1455 11.1628C22.0725 11.0724 21.9972 10.9831 21.9341 10.8877C21.9132 10.8558 21.8903 10.8251 21.8658 10.7959C21.8297 10.75 21.797 10.7013 21.768 10.6506C21.7451 10.6126 21.7233 10.5764 21.69 10.5166C21.6345 10.4357 21.5873 10.3493 21.5489 10.2588C21.5286 10.2086 21.5044 10.1599 21.4766 10.1133C21.4518 10.0703 21.4309 10.025 21.4142 9.97829C21.4033 9.95181 21.3943 9.93071 21.379 9.89157C21.3414 9.81048 21.3126 9.72845 21.2789 9.63669C21.2682 9.58372 21.2529 9.53181 21.2335 9.48141C21.2013 9.39845 21.175 9.31325 21.1548 9.22653C21.151 9.20989 21.1265 9.11813 21.1217 9.10149C21.1159 9.05837 21.1074 9.01559 21.0963 8.97352C21.0702 8.85938 21.0522 8.7436 21.042 8.627C20.9857 8.20899 20.9861 7.78524 21.043 7.36724ZM13.9913 11.6005C14.1011 11.4335 14.197 11.2579 14.2779 11.0752C14.3402 10.9652 14.3936 10.8506 14.4377 10.7323C14.4416 10.7223 14.4474 10.7131 14.4513 10.7031C14.5052 10.5845 14.553 10.4633 14.5943 10.3398C14.6215 10.2723 14.6434 10.2027 14.6597 10.1318C14.7118 9.99798 14.7529 9.86017 14.7828 9.71966C14.8114 9.62368 14.8343 9.52618 14.8517 9.42763C14.8929 9.2447 14.9233 9.05942 14.9425 8.87298C15.019 8.29548 15.0194 7.71036 14.9436 7.13274C14.9239 6.94431 14.8933 6.75704 14.8518 6.57224C14.8394 6.49395 14.8214 6.41661 14.7981 6.34079L14.798 6.34032L14.7947 6.32614L14.7891 6.30716C14.7652 6.20134 14.7385 6.09774 14.7068 6.00001H19.2938C19.2636 6.08954 19.2388 6.18083 19.2195 6.27329L19.2186 6.27634L19.218 6.2788L19.2175 6.2802C19.2126 6.29755 19.2096 6.3163 19.205 6.33364C19.184 6.41075 19.1629 6.48786 19.1487 6.5713C19.1075 6.75458 19.0771 6.94009 19.0579 7.127C18.9814 7.7045 18.981 8.28962 19.057 8.86724C19.0766 9.05602 19.1073 9.24352 19.1487 9.4288L19.1501 9.43501C19.1624 9.51083 19.1799 9.58571 19.2024 9.65931L19.2058 9.67395C19.2217 9.74321 19.247 9.81259 19.2672 9.88208C19.2912 9.96563 19.3105 10.0535 19.34 10.132C19.3567 10.2029 19.3788 10.2724 19.4059 10.34L19.4194 10.3743C19.4519 10.4622 19.4812 10.5373 19.5053 10.5925C19.5203 10.6284 19.5329 10.6688 19.5489 10.7032C19.5977 10.8309 19.6557 10.9549 19.7222 11.0743C19.7918 11.2355 19.8749 11.3903 19.9708 11.5372C20.0335 11.6523 20.0958 11.7545 20.1598 11.8497C18.3084 13.3134 15.6938 13.3139 13.8419 11.8507C13.8965 11.7702 13.9464 11.6868 13.9913 11.6005ZM13.143 13.8335C13.1527 13.84 13.1636 13.8441 13.1733 13.8504C13.1909 13.8631 13.2088 13.8756 13.2271 13.8878C13.2984 13.9396 13.3628 13.9766 13.4103 14.005C13.6083 14.1294 13.8154 14.2388 14.03 14.3322C14.11 14.3736 14.1925 14.4102 14.277 14.4415C14.3991 14.4962 14.5211 14.542 14.6477 14.5889C14.7218 14.6195 14.7984 14.6438 14.8766 14.6612C15.0142 14.7117 15.1546 14.754 15.2971 14.7883C15.3978 14.8177 15.5002 14.8405 15.6038 14.8566C15.675 14.8732 15.7483 14.8859 15.8269 14.8965C15.9236 14.9161 16.0217 14.9297 16.1253 14.9425C16.4154 14.9799 16.7077 14.9992 17.0003 15C17.2836 14.9995 17.5666 14.9813 17.8475 14.9453C17.9896 14.9316 18.1321 14.9072 18.2464 14.8847L18.4226 14.8515C18.4407 14.8477 18.4587 14.8437 18.4769 14.8389C18.5447 14.8289 18.6119 14.8138 18.6775 14.794C18.828 14.7591 18.9762 14.715 19.1214 14.6622C19.1928 14.6491 19.2623 14.6276 19.3284 14.5977C19.4597 14.5499 19.5916 14.501 19.6639 14.4659C19.7669 14.428 19.8678 14.3847 19.9661 14.336C20.0096 14.3165 20.0519 14.2945 20.0931 14.2706C20.2694 14.1934 20.4392 14.1024 20.6009 13.9982C20.6583 13.9656 20.7141 13.9301 20.7679 13.8918C20.7929 13.8775 20.8132 13.8601 20.8369 13.845L20.8496 13.838C20.9526 13.9636 21.0456 14.0952 21.1354 14.2288C21.1915 14.3122 21.2554 14.3906 21.3063 14.4771C21.4067 14.6552 21.4961 14.8395 21.574 15.0285C21.6094 15.1102 21.6546 15.1874 21.6857 15.2708C21.7572 15.4744 21.8153 15.6824 21.8597 15.8934C21.8773 15.9696 21.906 16.0424 21.92 16.1195C22.0274 16.7016 22.0274 17.2984 21.92 17.8805C21.9061 17.9575 21.8773 18.0304 21.8597 18.1065C21.8152 18.3176 21.7571 18.5256 21.6857 18.7292C21.6546 18.8127 21.6095 18.8898 21.574 18.9715C21.4961 19.1606 21.4067 19.3447 21.3063 19.5229C21.2554 19.6093 21.1915 19.6877 21.1354 19.7712C21.0456 19.9049 20.9527 20.0365 20.8496 20.162C20.8224 20.144 20.7921 20.1318 20.7647 20.1142C20.5314 19.9638 20.2893 19.8274 20.0398 19.7059C20.0079 19.6904 19.9775 19.6719 19.9454 19.6569C19.6634 19.5261 19.3731 19.4143 19.0764 19.3224C19.0129 19.3025 18.9484 19.2879 18.8845 19.2699C18.6487 19.2035 18.4095 19.1496 18.168 19.1085C18.0852 19.0944 18.0034 19.0794 17.9202 19.0683C17.3105 18.9774 16.6906 18.9774 16.0807 19.0683C15.9975 19.0794 15.9157 19.0944 15.833 19.1085C15.5915 19.1496 15.3524 19.2035 15.1165 19.2699C15.0525 19.2879 14.988 19.3025 14.9246 19.3224C14.6277 19.4145 14.3375 19.5263 14.0556 19.6569C14.0234 19.6719 13.993 19.6903 13.9612 19.7059C13.7117 19.8275 13.4696 19.9638 13.2362 20.1142C13.2052 20.1342 13.171 20.1478 13.1402 20.1683L13.1328 20.1597C12.7816 19.7296 12.5043 19.2441 12.3125 18.7229C12.3039 18.7 12.2955 18.6775 12.2868 18.6532C12.1961 18.3982 12.1264 18.1363 12.0783 17.87L12.0753 17.8558C11.9276 17.0191 11.9995 16.1585 12.2839 15.3579C12.312 15.2734 12.3524 15.1965 12.3864 15.1165C12.455 14.9427 12.5331 14.7729 12.6207 14.6079C12.6416 14.5693 12.66 14.5307 12.6844 14.4919C12.8035 14.2899 12.9365 14.0965 13.0826 13.9131C13.1024 13.8871 13.1218 13.8601 13.143 13.8335ZM6.00004 6.00001H12.576C12.5806 6.01138 12.5871 6.02192 12.5914 6.03317L12.5982 6.04876L12.6188 6.10056C12.6569 6.18458 12.6866 6.2686 12.7213 6.36329C12.7321 6.41626 12.7473 6.46817 12.7668 6.51856C12.799 6.60153 12.8253 6.68673 12.8454 6.77345C12.8493 6.79009 12.8738 6.87985 12.8786 6.89649C12.8841 6.94032 12.8925 6.98368 12.904 7.02634C12.93 7.14048 12.9481 7.25638 12.9583 7.37298C13.0145 7.79099 13.0143 8.21474 12.9572 8.63274C12.9475 8.74747 12.9297 8.86138 12.904 8.97352C12.8977 8.9979 12.8835 9.07513 12.8792 9.0995L12.8455 9.22653C12.8254 9.31325 12.7991 9.39845 12.7669 9.48141C12.7538 9.51563 12.7356 9.58196 12.7234 9.63083L12.7171 9.64841L12.6864 9.73114C12.6783 9.75423 12.6693 9.77661 12.6606 9.79876C12.6422 9.84598 12.6214 9.89802 12.5916 9.96681C12.5736 10.0177 12.5508 10.0666 12.5238 10.1133C12.496 10.1599 12.4718 10.2086 12.4514 10.2588C12.4067 10.3618 12.3521 10.4603 12.2883 10.5527C12.2063 10.6961 12.1158 10.8343 12.0173 10.9668C11.9683 11.0358 11.911 11.1019 11.8557 11.1688L11.842 11.1601C11.81 11.136 11.7766 11.1138 11.7419 11.0937C11.6835 11.0533 11.623 11.0161 11.5607 10.9824C11.4047 10.8831 11.2415 10.7956 11.0724 10.7207C10.9534 10.655 10.83 10.5976 10.7032 10.5488C10.5839 10.4941 10.4617 10.4462 10.337 10.4052C10.2712 10.3788 10.2034 10.3574 10.1344 10.3408C9.99356 10.2881 9.8493 10.2448 9.70281 10.2109C9.62172 10.1884 9.53922 10.1719 9.44641 10.1552L9.41312 10.1484C9.26289 10.1112 9.10984 10.0861 8.95562 10.0732C8.39336 9.98333 7.82125 9.97255 7.25594 10.041C7.18176 10.0443 7.10805 10.0543 7.03574 10.0712C6.87555 10.0895 6.71641 10.1166 6.55914 10.1523H6.5582C6.49891 10.1624 6.4402 10.1758 6.38242 10.1923L6.34141 10.2011C6.22586 10.2259 6.11195 10.2575 6.00016 10.2959V6.00001H6.00004ZM6.00004 12.4228L6.04352 12.4052C6.0748 12.3935 6.10551 12.3798 6.13527 12.3653C6.22082 12.3271 6.30859 12.2938 6.39801 12.2657L6.49809 12.2384C6.53734 12.2284 6.57602 12.216 6.61375 12.2012C6.65852 12.1836 6.70457 12.1696 6.75145 12.1593C6.77043 12.1554 6.79445 12.1495 6.81789 12.1426C6.84379 12.1377 6.86969 12.1318 6.895 12.126C6.9257 12.1211 6.95652 12.1143 6.98676 12.1064C7.07816 12.0833 7.17121 12.0673 7.26508 12.0586C7.31746 12.0551 7.36961 12.0476 7.42082 12.0361C7.43594 12.0341 7.45105 12.0332 7.46676 12.0302C7.8884 11.9749 8.31602 11.9845 8.73484 12.0585C8.82695 12.0677 8.91824 12.084 9.00777 12.1074C9.03824 12.1138 9.06906 12.1186 9.10012 12.122C9.11383 12.1259 9.12742 12.1279 9.14113 12.1308C9.17289 12.1405 9.20559 12.1493 9.23828 12.1572C9.31316 12.1724 9.38641 12.1947 9.45707 12.2236C9.5132 12.2442 9.57039 12.2619 9.62852 12.2763L9.66367 12.2881C9.73234 12.3093 9.79961 12.335 9.86488 12.3652C9.89828 12.3818 9.93273 12.3965 9.96789 12.4091C10.0197 12.4273 10.0696 12.4506 10.1168 12.4785C10.1631 12.5061 10.2116 12.5299 10.2618 12.5497C10.3762 12.6012 10.4866 12.6613 10.5919 12.7294C10.6452 12.7741 10.7031 12.8132 10.7648 12.8456C10.8346 12.8886 10.9034 12.9374 10.9703 12.9853C11.0378 13.033 11.1019 13.0891 11.1671 13.1431C11.1149 13.2175 11.0668 13.2946 11.0227 13.3739C10.9667 13.4661 10.9156 13.5606 10.8639 13.6553C10.8345 13.7095 10.8011 13.7637 10.7736 13.8183C10.738 13.8724 10.708 13.93 10.6841 13.9902C10.6784 14.004 10.6735 14.0182 10.6684 14.0325C10.6375 14.0983 10.6083 14.1647 10.5795 14.2314C10.5092 14.3829 10.448 14.5384 10.3961 14.6972L10.3919 14.7111C10.3521 14.8252 10.3196 14.9414 10.2858 15.0574C10.2721 15.1095 10.2482 15.1623 10.238 15.2138C10.2257 15.2536 10.2205 15.2932 10.2105 15.3329C10.1651 15.5168 10.1296 15.7028 10.0991 15.8905C10.0936 15.9316 10.0819 15.9721 10.0783 16.0126C10.075 16.0263 10.0764 16.034 10.0737 16.0471C9.98137 16.6453 9.97598 17.2539 10.0577 17.8538C10.0598 17.894 10.0641 17.9339 10.071 17.9735C10.084 18.0777 10.1049 18.1763 10.126 18.2746C10.1508 18.4077 10.1789 18.5395 10.2115 18.6707C10.2213 18.7088 10.2262 18.7471 10.238 18.7852C10.2631 18.9161 10.2999 19.0445 10.3479 19.169C10.3586 19.2013 10.3716 19.2327 10.3826 19.2649C10.4424 19.4465 10.5121 19.6246 10.5913 19.7985C10.622 19.8687 10.6557 19.9372 10.6887 20.0064L10.6995 20.0293C10.7404 20.1234 10.7867 20.215 10.8381 20.3038C10.8685 20.3673 10.9022 20.4293 10.9389 20.4894C10.9566 20.5201 10.9746 20.5505 10.9929 20.5808C11.014 20.6203 11.0378 20.6583 11.0642 20.6945C11.0938 20.7484 11.1268 20.8006 11.1626 20.8506C11.0177 20.9727 10.8653 21.0856 10.7063 21.1886C10.6777 21.2063 10.6502 21.2255 10.6238 21.2462C10.4955 21.3307 10.3606 21.4049 10.2204 21.4679C10.1887 21.4826 10.1569 21.4982 10.1267 21.5158C10.093 21.5304 10.0598 21.546 10.0275 21.5636C9.95629 21.6026 9.87766 21.6329 9.80348 21.6681C9.77418 21.6749 9.71758 21.7023 9.68922 21.712C9.56957 21.7337 9.4525 21.7675 9.33965 21.8126C9.28574 21.8215 9.23266 21.835 9.18098 21.8525C9.13211 21.8692 9.0823 21.878 9.00766 21.8956L8.90957 21.917C8.79039 21.9388 8.67004 21.9538 8.54922 21.9619C8.52191 21.9639 8.49402 21.9668 8.46672 21.9707C8.43543 21.9717 8.40473 21.9736 8.37344 21.9775C8.1257 22.0088 7.87504 22.0088 7.6273 21.9775C7.58535 21.9725 7.48375 21.9638 7.44133 21.9638C7.36422 21.9475 7.2857 21.9389 7.20695 21.9383C7.17473 21.9305 7.11273 21.9237 7.07957 21.9188C7.03844 21.9055 6.99648 21.8947 6.95406 21.8865C6.87156 21.8719 6.78848 21.8484 6.70609 21.8259C6.68465 21.8201 6.58938 21.7908 6.56793 21.7869C6.52703 21.7684 6.48496 21.7527 6.44195 21.74C6.29148 21.6952 6.14406 21.6409 6.00051 21.5775V12.4228H6.00004ZM6.00004 30.4242C6.01105 30.4199 6.02125 30.4132 6.03227 30.4092C6.0523 30.4024 6.09531 30.3829 6.12695 30.3682C6.15449 30.3592 6.18156 30.3488 6.20805 30.3369C6.2384 30.3225 6.26969 30.3101 6.3018 30.2998C6.32277 30.293 6.34375 30.2861 6.36426 30.2783L6.36918 30.2773C6.42871 30.2649 6.48684 30.2468 6.54297 30.2236C6.61363 30.1947 6.68688 30.1724 6.76176 30.1572C6.79445 30.1493 6.87402 30.1347 6.90625 30.124C6.93309 30.1191 6.95992 30.1132 6.98687 30.1064C7.07828 30.0833 7.17133 30.0673 7.2652 30.0586C7.31758 30.0551 7.36973 30.0476 7.42094 30.0361C7.43605 30.0341 7.45117 30.0332 7.46688 30.0302C7.88852 29.9749 8.31613 29.9845 8.73496 30.0586C8.82707 30.0679 8.91836 30.0841 9.00789 30.1075C9.08102 30.1222 9.15543 30.1297 9.23008 30.13V29.4629L9.29313 29.1397L9.2384 30.1573C9.31328 30.1725 9.38652 30.1948 9.45719 30.2237C9.54367 30.2595 9.63238 30.2895 9.72285 30.3136C9.75508 30.3283 9.82691 30.3517 9.86008 30.3625C9.89512 30.38 9.93121 30.3958 9.96801 30.4093C10.0198 30.4275 10.0696 30.4508 10.117 30.4787C10.1632 30.5064 10.2118 30.5302 10.2619 30.55C10.3763 30.6014 10.4867 30.6615 10.592 30.7296C10.6454 30.7744 10.7032 30.8134 10.7649 30.8459C10.8347 30.8889 10.9035 30.9376 10.9704 30.9856C11.0386 31.0337 11.1034 31.0906 11.1693 31.1452C11.1558 31.166 11.1427 31.1876 11.13 31.2093C11.1111 31.2356 11.0934 31.262 11.0773 31.2893C11.0665 31.3049 11.0563 31.3215 11.0466 31.3382L11.0463 31.3388C10.9775 31.4503 10.9141 31.5642 10.8517 31.6793C10.8215 31.7353 10.7842 31.7884 10.757 31.845C10.7287 31.8914 10.7044 31.94 10.6843 31.9906L10.6818 31.9964C10.6649 32.029 10.6595 32.0469 10.6459 32.0765C10.6308 32.1091 10.6163 32.142 10.6018 32.1749C10.5919 32.1987 10.574 32.2348 10.5666 32.2533C10.5098 32.3811 10.4686 32.5079 10.4219 32.6351C10.3986 32.6995 10.3704 32.762 10.3491 32.827C10.303 32.9667 10.2682 33.1084 10.2336 33.2494C10.1917 33.4102 10.1548 33.5719 10.1245 33.7358C10.1027 33.8473 10.0795 33.9575 10.0642 34.0746C10.0581 34.1109 10.0539 34.1475 10.0517 34.1843C9.98313 34.7262 9.98313 35.2746 10.0517 35.8165C10.0539 35.8533 10.0581 35.8899 10.0642 35.9262C10.0793 36.0434 10.1025 36.1535 10.1245 36.265C10.1537 36.4234 10.1891 36.5796 10.2291 36.7351C10.2652 36.8843 10.3023 37.033 10.3503 37.1781C10.3653 37.2237 10.3853 37.2674 10.4011 37.3126C10.45 37.4487 10.4955 37.586 10.5544 37.7181C10.5652 37.745 10.5848 37.7843 10.5978 37.8154C10.6143 37.8527 10.6305 37.8901 10.6476 37.9273C10.6602 37.9545 10.6666 37.9746 10.6814 38.0033L10.6844 38.0101C10.7059 38.065 10.7328 38.1177 10.7644 38.1674C10.7874 38.2133 10.8122 38.2592 10.8381 38.3041C10.8685 38.3677 10.9022 38.4297 10.9389 38.4898C10.9555 38.5186 10.9723 38.5473 10.9894 38.5759C11.0111 38.616 11.0352 38.6547 11.0617 38.6918C11.0925 38.7476 11.1268 38.8014 11.1643 38.8528C11.0635 38.9425 10.9566 39.025 10.8445 39.1C10.806 39.1239 10.7691 39.1504 10.7341 39.1791C10.6614 39.2156 10.5927 39.2595 10.529 39.31C10.427 39.3713 10.321 39.4254 10.2116 39.472C10.1791 39.4867 10.1474 39.5033 10.117 39.5218C10.0697 39.5497 10.0198 39.5729 9.96801 39.5912C9.93285 39.6039 9.8984 39.6185 9.865 39.6352C9.79973 39.6654 9.73258 39.6912 9.66379 39.7123L9.63602 39.722L9.63109 39.7231C9.57156 39.7356 9.51344 39.7535 9.4573 39.7767C9.36273 39.8134 9.26523 39.8419 9.16586 39.8617L8.85777 39.9232C8.80305 39.9359 8.74797 39.9399 8.64437 39.9525C8.21746 40.017 7.78328 40.017 7.35625 39.9525C7.31559 39.9457 7.27445 39.9417 7.2332 39.9408C7.16629 39.9261 7.08379 39.9124 7.03984 39.9076C7.01395 39.9008 6.92512 39.8842 6.89922 39.8793L6.70738 40.8607L6.76211 39.8432C6.68723 39.8279 6.61398 39.8057 6.54332 39.7767C6.47535 39.7473 6.40445 39.725 6.3318 39.7103C6.24484 39.679 6.16621 39.6478 6.00953 39.5833L6.00004 39.5789V30.4242ZM10.7862 39.1533C10.7745 39.1582 10.7628 39.1641 10.7515 39.1699C10.762 39.1627 10.7729 39.1561 10.7842 39.1504L10.7862 39.1533ZM11.1461 49.168C11.1261 49.1982 11.0977 49.2413 11.0679 49.296C11.0602 49.3072 11.0514 49.3242 11.0433 49.3369C11.0276 49.3613 11.0117 49.3839 10.9967 49.4112C10.9244 49.5143 10.8631 49.6246 10.8135 49.7402C10.7998 49.7645 10.7868 49.7896 10.774 49.8145L10.7628 49.8349C10.732 49.8843 10.7056 49.9362 10.6841 49.9902L10.6749 50.0136C10.63 50.0991 10.591 50.1875 10.5582 50.2782C10.5161 50.3715 10.4804 50.4681 10.4438 50.5658C10.4339 50.5922 10.4226 50.6166 10.4126 50.6435C10.3809 50.7197 10.3558 50.7984 10.3374 50.8788C10.2896 51.0088 10.2497 51.1415 10.2182 51.2763L10.2175 51.2794L10.2173 51.2802C10.2123 51.2976 10.2094 51.3163 10.2047 51.3336C10.1838 51.4108 10.1627 51.4879 10.1485 51.5713C10.1072 51.7546 10.0769 51.9401 10.0577 52.127C9.98113 52.7045 9.98078 53.2896 10.0566 53.8672C10.062 53.9121 10.0674 53.9561 10.0732 54H6.00004V48.4242C6.01105 48.4199 6.02125 48.4132 6.03227 48.4092C6.0523 48.4024 6.09531 48.3829 6.12695 48.3682C6.15449 48.3592 6.18156 48.3488 6.20805 48.3369C6.2384 48.3225 6.26969 48.3101 6.3018 48.2998C6.32277 48.293 6.34375 48.2861 6.36426 48.2783L6.36918 48.2773C6.42871 48.2647 6.48684 48.2468 6.54297 48.2236C6.61363 48.1947 6.68688 48.1724 6.76176 48.1572C6.79445 48.1493 6.87402 48.1347 6.90625 48.124C6.93309 48.1191 6.95992 48.1132 6.98687 48.1064C7.07828 48.0833 7.17133 48.0673 7.2652 48.0586C7.31758 48.0551 7.36973 48.0476 7.42094 48.0361C7.43605 48.0341 7.45117 48.0332 7.46688 48.0302C7.88852 47.9755 8.31613 47.985 8.73496 48.0586C8.82707 48.0679 8.91836 48.0841 9.00789 48.1075C9.08102 48.1222 9.15543 48.1297 9.23008 48.13V47.4629L9.29313 47.1397L9.2384 48.1573C9.31328 48.1725 9.38652 48.1948 9.45719 48.2237C9.54367 48.2595 9.63238 48.2895 9.72285 48.3136C9.75508 48.3283 9.82691 48.3517 9.86008 48.3625C9.89512 48.38 9.93121 48.3957 9.96801 48.4093C10.0198 48.4275 10.0696 48.4508 10.117 48.4787C10.1632 48.5064 10.2118 48.5302 10.2619 48.55C10.3763 48.6014 10.4867 48.6615 10.592 48.7296C10.6454 48.7744 10.7032 48.8134 10.7649 48.8459C10.8347 48.8889 10.9035 48.9376 10.9704 48.9856C11.0372 49.0328 11.1007 49.0886 11.1654 49.1419L11.1461 49.168ZM11.8418 47.1602C11.8098 47.1361 11.7764 47.114 11.7418 47.0938C11.6834 47.0534 11.6229 47.0162 11.5606 46.9825C11.4046 46.8832 11.2414 46.7957 11.0723 46.7208C10.9523 46.6548 10.8279 46.597 10.7002 46.5479C10.6312 46.5169 10.5606 46.4895 10.4888 46.4659C10.3764 46.4168 10.2605 46.376 10.1421 46.3438C9.99918 46.2892 9.85246 46.2451 9.70316 46.212C9.59559 46.1803 9.48602 46.1565 9.37504 46.1407C9.23734 46.1068 9.09707 46.0843 8.95562 46.0733C8.39324 45.9839 7.82125 45.973 7.25594 46.041C7.18176 46.0443 7.10805 46.0543 7.03574 46.0712C6.87555 46.0895 6.71641 46.1166 6.55914 46.1523L6.52352 46.1611C6.44734 46.1742 6.37188 46.1912 6.29746 46.2118C6.19445 46.2353 6.09531 46.2626 6.00016 46.2939V41.707C6.09766 41.7391 6.19668 41.7662 6.29699 41.7881C6.38922 41.8147 6.48273 41.8363 6.5773 41.8526C6.64855 41.8692 6.72473 41.8819 6.80242 41.8925C6.90332 41.917 7.00633 41.932 7.11004 41.9374C7.37711 41.9733 7.64629 41.9922 7.91582 41.994C7.94465 41.9945 7.97125 42 8.0002 42C8.17141 42 8.33957 41.9927 8.49906 41.9804C8.64496 41.9697 8.78277 41.954 8.90734 41.9337C9.03285 41.92 9.1573 41.9044 9.24625 41.8848L9.35125 41.8623C9.4566 41.8499 9.56066 41.8283 9.66227 41.7979C9.82269 41.7633 9.98031 41.717 10.1339 41.6592C10.2032 41.6431 10.2712 41.6215 10.337 41.5948C10.4617 41.5539 10.5839 41.5059 10.7032 41.4512C10.8372 41.3997 10.967 41.3382 11.092 41.2676C11.2622 41.192 11.4271 41.1048 11.5855 41.0068C11.6334 40.9785 11.6861 40.9444 11.7379 40.9082C11.7777 40.8864 11.8149 40.8634 11.8509 40.84C12.0019 41.0191 12.1404 41.2085 12.2652 41.4068L12.2731 41.4198C12.2796 41.4314 12.2875 41.4418 12.2944 41.4532C12.4384 41.6956 12.5618 41.9496 12.6632 42.2126L12.6846 42.268C13.2143 43.6764 13.0718 45.2495 12.2977 46.5399C12.2883 46.5552 12.2789 46.5706 12.2704 46.5861C12.1434 46.7884 12.0023 46.9814 11.848 47.1639L11.8418 47.1602ZM21.957 53.633C21.9473 53.7477 21.9295 53.8616 21.9038 53.9738L21.8983 54H12.1015L12.0963 53.9736C12.0702 53.8595 12.0522 53.7436 12.042 53.627C11.9857 53.209 11.986 52.7852 12.043 52.3672C12.0528 52.2525 12.0706 52.1386 12.0963 52.0265C12.103 52.001 12.1163 51.9278 12.1211 51.9014L12.1547 51.7734C12.1749 51.6867 12.2011 51.6015 12.2334 51.5186C12.2465 51.4843 12.2646 51.418 12.2768 51.3692L12.2832 51.3516L12.3148 51.2664C12.3375 51.2057 12.3641 51.1367 12.4116 51.0273C12.4288 50.9786 12.4506 50.9315 12.4765 50.8867C12.5097 50.832 12.5373 50.7741 12.559 50.7138C12.5707 50.6924 12.5834 50.6719 12.5962 50.6503C12.6032 50.6379 12.6086 50.6245 12.615 50.6119C12.6318 50.5774 12.6504 50.544 12.6708 50.5117C12.6967 50.4745 12.72 50.4357 12.7407 50.3954C12.7638 50.3631 12.7847 50.3295 12.8037 50.2945C12.8127 50.2833 12.8211 50.271 12.8291 50.2597C12.8632 50.2181 12.8942 50.1741 12.922 50.1279C12.9871 50.0228 13.0614 49.9235 13.1439 49.8313L13.1709 49.8486L13.2051 49.8721C13.268 49.9138 13.3319 49.9542 13.3953 49.991C13.4313 50.0127 13.4662 50.0357 13.5025 50.0568C13.6377 50.1422 13.7792 50.2173 13.9258 50.2813L13.9247 50.2833C13.979 50.3102 14.03 50.3329 14.0584 50.3449C14.1272 50.3769 14.1975 50.4048 14.2674 50.4346C14.2811 50.4402 14.2949 50.447 14.3086 50.4523C14.3447 50.4695 14.3782 50.4763 14.4147 50.4921C14.5636 50.5517 14.7119 50.6122 14.8647 50.6615L14.8848 50.6691C15.0509 50.7238 15.2168 50.7696 15.3932 50.8136C15.4281 50.8228 15.4636 50.8301 15.4994 50.8351C15.5186 50.8393 15.5378 50.8427 15.557 50.8468C15.5691 50.8487 15.5895 50.8539 15.5997 50.8555C15.6374 50.8631 15.6704 50.8664 15.7053 50.8709C15.7505 50.8794 15.7963 50.8853 15.8418 50.893C15.8593 50.895 15.8766 50.8982 15.8937 50.9024C15.9053 50.9047 15.9265 50.9064 15.9391 50.9088C16.1719 50.9447 16.4064 50.9687 16.6417 50.9808C16.8735 50.9957 17.106 50.996 17.3379 50.9818C17.523 50.9728 17.707 50.9603 17.8895 50.9367C17.9004 50.935 17.9127 50.9346 17.9235 50.9327C18.0844 50.9187 18.2441 50.8935 18.4015 50.8575C18.4134 50.8549 18.4237 50.8507 18.4354 50.8481C18.7536 50.7792 19.0666 50.6882 19.3721 50.5757C19.387 50.5699 19.4031 50.5657 19.4178 50.5596C19.532 50.5216 19.6442 50.4776 19.7538 50.4278C19.7826 50.4181 19.8114 50.4063 19.8396 50.3936L19.8411 50.3965C19.9366 50.3559 20.0296 50.3099 20.1198 50.2588C20.1572 50.2404 20.1926 50.2146 20.2299 50.1955C20.4031 50.1049 20.5723 50.0084 20.7377 49.9034C20.7773 49.8783 20.8189 49.8602 20.8581 49.8341C20.9153 49.9033 20.9723 49.969 21.0305 50.0497C21.1349 50.1867 21.2284 50.3318 21.3104 50.4833C21.3659 50.5643 21.4131 50.6507 21.4514 50.7411C21.4718 50.7914 21.496 50.84 21.5238 50.8867C21.5498 50.9315 21.5714 50.9786 21.5887 51.0273C21.6027 51.0663 21.619 51.1044 21.6375 51.1416C21.6671 51.2052 21.6923 51.2708 21.7128 51.3379L21.7216 51.3633C21.7342 51.4248 21.7527 51.4849 21.7768 51.5429C21.8049 51.6128 21.8268 51.685 21.8421 51.7588C21.8471 51.7802 21.8724 51.8769 21.8787 51.8985C21.8845 51.9416 21.893 51.9844 21.9041 52.0265C21.9302 52.1406 21.9482 52.2565 21.9584 52.3731C22.0143 52.7912 22.0139 53.215 21.957 53.633ZM29.1041 49.2411C29.0925 49.259 29.0796 49.2759 29.0702 49.2915C29.0406 49.3396 29.0193 49.3785 29.0089 49.3993C28.9615 49.4728 28.9285 49.5498 28.8864 49.6242C28.8264 49.7215 28.7717 49.8218 28.7222 49.9248C28.6626 50.0297 28.6116 50.1393 28.5696 50.2524C28.5636 50.2676 28.5546 50.2817 28.5488 50.2969C28.4949 50.4155 28.4471 50.5366 28.4057 50.6602C28.3785 50.7277 28.3566 50.7973 28.3403 50.8682C28.307 50.9559 28.2897 51.0331 28.2666 51.1151C28.2515 51.1682 28.2278 51.2332 28.2182 51.2765L28.2175 51.2795L28.2173 51.2803C28.2123 51.2977 28.2094 51.3164 28.2047 51.3338C28.1838 51.4109 28.1627 51.488 28.1485 51.5714C28.1072 51.7547 28.0769 51.9402 28.0577 52.1271C27.9811 52.7046 27.9808 53.2897 28.0566 53.8674C28.062 53.9122 28.0674 53.9562 28.0732 54.0001L23.9268 54.0002C23.9327 53.9583 23.9376 53.9162 23.9424 53.8732C24.0189 53.2957 24.0193 52.7106 23.9434 52.133C23.9237 51.9442 23.893 51.7567 23.8517 51.5714C23.8477 51.548 23.8431 51.5295 23.8387 51.5079C23.828 51.4515 23.8144 51.3959 23.798 51.3409C23.7639 51.1801 23.7179 51.0222 23.6603 50.8683C23.6504 50.8268 23.6316 50.7731 23.6137 50.721C23.6061 50.699 23.6036 50.6818 23.594 50.6584C23.5832 50.6272 23.5702 50.601 23.5592 50.5708C23.525 50.4765 23.4912 50.3824 23.4515 50.2971C23.4026 50.1694 23.3447 50.0454 23.2782 49.926C23.2102 49.7679 23.1286 49.6159 23.0345 49.4719C22.9756 49.3615 22.9102 49.2533 22.8415 49.1501C24.6947 47.6852 27.3119 47.6866 29.1637 49.1534C29.14 49.1852 29.1227 49.2126 29.1041 49.2411ZM29.8237 47.1478C29.8062 47.1354 29.7888 47.1231 29.7706 47.1114C29.7025 47.0625 29.6308 47.0188 29.5562 46.9805C29.4023 46.8816 29.2405 46.795 29.0729 46.7217C29.053 46.7106 29.0346 46.7025 29.015 46.6921C28.9929 46.6815 28.9718 46.6691 28.9498 46.6588C28.8763 46.6209 28.8006 46.5875 28.7233 46.5586C28.6012 46.5039 28.4792 46.4581 28.3526 46.4112C28.2786 46.3806 28.2019 46.3563 28.1236 46.3389L28.1016 46.3322C28.0436 46.3137 27.9856 46.2963 27.9271 46.2795C27.8514 46.2563 27.7707 46.2275 27.7033 46.2118C27.6021 46.1823 27.4993 46.1595 27.3952 46.1435C27.3114 46.1237 27.2154 46.1131 27.1255 46.099C27.0688 46.0896 27.0128 46.0788 26.9557 46.0709C26.9275 46.0671 26.9043 46.0614 26.8752 46.0575C26.7116 46.037 26.536 46.0354 26.3637 46.0269C26.2422 46.0205 26.1224 46 26.0002 46C25.8862 46 25.7748 46.0195 25.6614 46.0252C25.4821 46.0334 25.2986 46.0358 25.1305 46.0567C25.1016 46.0602 25.0772 46.067 25.0487 46.0708C24.982 46.08 24.9166 46.0935 24.8502 46.1047C24.7412 46.122 24.6264 46.1342 24.5246 46.1603L24.5236 46.1613C24.4557 46.1713 24.3886 46.1864 24.3229 46.2062C24.243 46.2246 24.163 46.2532 24.0832 46.2774C24.022 46.2949 23.9611 46.3124 23.9003 46.3317L23.8791 46.3381C23.8077 46.3511 23.7382 46.3726 23.6721 46.4025C23.5408 46.4503 23.4089 46.4992 23.3479 46.5305C23.2838 46.5538 23.2238 46.5886 23.1605 46.6166C23.0857 46.65 23.0113 46.6829 22.9376 46.719C22.9282 46.7242 22.9176 46.7272 22.9083 46.7325C22.7327 46.8103 22.5626 46.9004 22.3995 47.002C22.3619 47.0235 22.3071 47.0557 22.2447 47.0997L22.212 47.1202C22.1913 47.1325 22.1744 47.1471 22.1546 47.1601L22.1508 47.1622C22.0478 47.0367 21.9549 46.9051 21.865 46.7714C21.8089 46.688 21.745 46.6096 21.6941 46.5231C21.5937 46.345 21.5043 46.1608 21.4264 45.9717C21.391 45.89 21.3457 45.8128 21.3147 45.7294C21.2432 45.5258 21.1851 45.3178 21.1407 45.1068C21.1232 45.0306 21.0944 44.9578 21.0804 44.8807C20.973 44.2986 20.973 43.7018 21.0804 43.1197C21.0943 43.0427 21.1231 42.9699 21.1407 42.8937C21.1852 42.6826 21.2433 42.4746 21.3147 42.2711C21.3457 42.1875 21.391 42.1104 21.4264 42.0287C21.5043 41.8396 21.5937 41.6555 21.6941 41.4774C21.745 41.3909 21.8089 41.3125 21.865 41.229C21.9548 41.0953 22.0477 40.9637 22.1508 40.8382C22.1759 40.8549 22.2039 40.8656 22.2292 40.8818C24.5219 42.3731 27.478 42.3731 29.7707 40.8818C29.796 40.8655 29.824 40.8549 29.8491 40.8382C29.9521 40.9638 30.0452 41.0954 30.1349 41.229C30.1911 41.3125 30.2549 41.3909 30.3058 41.4774C30.4062 41.6555 30.4956 41.8397 30.5736 42.0287C30.6089 42.1104 30.6542 42.1876 30.6852 42.2711C30.7567 42.4746 30.8148 42.6826 30.8593 42.8937C30.8768 42.9699 30.9055 43.0426 30.9195 43.1197C31.027 43.7018 31.027 44.2986 30.9195 44.8807C30.9057 44.9577 30.8768 45.0306 30.8593 45.1068C30.8147 45.3178 30.7566 45.5258 30.6852 45.7294C30.6542 45.8129 30.6091 45.89 30.5736 45.9717C30.4956 46.1609 30.4062 46.345 30.3058 46.5231C30.2549 46.6096 30.1911 46.688 30.1349 46.7714C30.0452 46.9051 29.9522 47.0367 29.8491 47.1622C29.841 47.1567 29.8319 47.1532 29.8237 47.1478ZM39.9571 53.6327C39.9474 53.7475 39.9296 53.8614 39.9039 53.9735L39.8983 54H30.1015L30.0963 53.9736C30.0702 53.8595 30.0522 53.7436 30.0421 53.627C29.9859 53.209 29.9861 52.7852 30.0432 52.3672C30.0529 52.2525 30.0707 52.1386 30.0964 52.0265C30.1032 52.001 30.1164 51.9278 30.1213 51.9014L30.155 51.7734C30.1751 51.6867 30.2014 51.6015 30.2336 51.5186C30.2498 51.4716 30.2635 51.4239 30.2747 51.3756L30.276 51.3711L30.2792 51.3624L30.2829 51.3526L30.314 51.2694C30.3214 51.2482 30.3297 51.2278 30.3375 51.2076C30.3565 51.1587 30.3791 51.103 30.4118 51.0274C30.4291 50.9787 30.4509 50.9316 30.4768 50.8868C30.5045 50.8402 30.5287 50.7915 30.5491 50.7413C30.5988 50.6293 30.6583 50.5221 30.7273 50.421C30.7444 50.3897 30.7595 50.3575 30.7742 50.337C30.807 50.2996 30.8369 50.2597 30.8636 50.2178C30.9516 50.0848 31.0471 49.9569 31.1496 49.8347L31.1712 49.8486L31.2054 49.8721C31.2579 49.9074 31.3111 49.9388 31.3642 49.9704C31.4405 50.0169 31.5177 50.0613 31.5958 50.1049C31.6594 50.1411 31.7213 50.1806 31.7866 50.213C31.8474 50.2512 31.912 50.2829 31.9795 50.3077H31.979C31.9894 50.3128 32.0008 50.315 32.0112 50.3201C32.3219 50.467 32.6431 50.5909 32.9719 50.6906C33.0546 50.7158 33.1364 50.7366 33.2198 50.7585C33.6746 50.879 34.1405 50.9528 34.6103 50.979C34.8691 50.9965 35.1287 50.9965 35.3875 50.9791C35.5404 50.9706 35.6931 50.9625 35.8443 50.9441C35.8802 50.9417 35.9158 50.9372 35.9511 50.9308C36.113 50.916 36.2736 50.8886 36.4313 50.8488C36.4691 50.8409 36.5066 50.832 36.5443 50.8233C36.569 50.8177 36.59 50.814 36.617 50.8066C36.6954 50.7911 36.7637 50.7636 36.8387 50.7427C37.017 50.6938 37.1931 50.6405 37.3666 50.5778C37.5246 50.5243 37.6745 50.4658 37.8183 50.4011C37.8755 50.3758 37.9311 50.3479 37.9875 50.321C38.0246 50.3024 38.0679 50.2856 38.1029 50.2665C38.2278 50.2079 38.3496 50.1431 38.4679 50.0721C38.5316 50.0357 38.5933 49.9958 38.656 49.9573C38.7238 49.9156 38.7918 49.8741 38.8566 49.8321C38.9143 49.9018 38.9718 49.9682 39.0306 50.0497C39.135 50.1867 39.2286 50.3318 39.3105 50.4833C39.366 50.5643 39.4132 50.6507 39.4516 50.7411C39.472 50.7914 39.4961 50.84 39.5239 50.8867C39.5499 50.9315 39.5716 50.9786 39.5888 51.0273C39.6029 51.0663 39.6191 51.1044 39.6377 51.1416C39.6672 51.2052 39.6924 51.2708 39.7129 51.3379L39.7217 51.3633C39.7343 51.4248 39.7528 51.4849 39.7769 51.5429C39.805 51.6128 39.8269 51.685 39.8423 51.7588C39.8472 51.7802 39.8725 51.8769 39.8789 51.8985C39.8847 51.9416 39.8932 51.9844 39.9044 52.0265C39.9304 52.1406 39.9484 52.2565 39.9585 52.3731C40.0144 52.791 40.0141 53.2147 39.9571 53.6327ZM40.2447 47.0997L40.212 47.1202C40.1912 47.1325 40.1744 47.1471 40.1546 47.1601L40.1508 47.1622C40.0478 47.0367 39.9548 46.9051 39.865 46.7714C39.8089 46.688 39.745 46.6096 39.6941 46.5231C39.5937 46.345 39.5043 46.1608 39.4264 45.9717C39.391 45.89 39.3457 45.8128 39.3147 45.7294C39.2432 45.5258 39.1851 45.3178 39.1407 45.1068C39.1231 45.0306 39.0944 44.9578 39.0804 44.8807C38.973 44.2986 38.973 43.7018 39.0804 43.1197C39.0943 43.0427 39.1231 42.9699 39.1407 42.8937C39.1852 42.6826 39.2433 42.4746 39.3147 42.2711C39.3457 42.1875 39.391 42.1104 39.4264 42.0287C39.5043 41.8396 39.5937 41.6555 39.6941 41.4774C39.745 41.3909 39.8089 41.3125 39.865 41.229C39.9548 41.0953 40.0477 40.9637 40.1508 40.8382C40.1759 40.8549 40.2039 40.8656 40.2292 40.8818C42.5226 42.3736 45.4798 42.3731 47.7727 40.8806C47.8001 40.8631 47.8306 40.8512 47.8579 40.8333L47.8867 40.8684C48.0489 41.0691 48.1953 41.282 48.3246 41.5051C48.3413 41.5314 48.3544 41.5596 48.3696 41.5867C48.4882 41.8011 48.5909 42.024 48.6768 42.2535C48.6903 42.2881 48.7038 42.3227 48.7161 42.3572C48.8016 42.6007 48.8682 42.8506 48.915 43.1043C48.9215 43.1317 48.9251 43.167 48.9297 43.1971C49.0234 43.7308 49.0233 44.2766 48.9291 44.8102C48.9249 44.8384 48.9216 44.8682 48.9155 44.8949C48.8687 45.1472 48.8027 45.3955 48.7176 45.6376C48.7034 45.6772 48.6869 45.7188 48.6711 45.7596C48.5857 45.9868 48.4841 46.2076 48.3668 46.4201C48.3538 46.4435 48.3455 46.4612 48.3289 46.4892C48.201 46.7092 48.0568 46.9191 47.8971 47.117L47.8572 47.1669C47.8471 47.1602 47.8359 47.1558 47.8258 47.1491C47.8079 47.1361 47.7897 47.1232 47.7706 47.1115C47.7023 47.0619 47.6301 47.0179 47.5547 46.9797C47.401 46.8812 47.2396 46.795 47.0723 46.7218C47.0539 46.7114 47.0368 46.704 47.0184 46.6943C46.9948 46.6831 46.9724 46.6697 46.9489 46.6587C46.8756 46.6209 46.8003 46.5877 46.7232 46.5587C46.6011 46.504 46.4791 46.4582 46.3525 46.4113C46.2783 46.3807 46.2018 46.3565 46.1235 46.339L46.1015 46.3323C46.0435 46.3138 45.9855 46.2965 45.927 46.2796C45.8513 46.2564 45.7705 46.2277 45.7032 46.212C45.602 46.1824 45.4991 46.1596 45.3951 46.1436C45.3113 46.1238 45.2153 46.1132 45.1254 46.0991C45.0687 46.0897 45.0127 46.079 44.9556 46.071C44.9274 46.0672 44.9042 46.0615 44.8751 46.0576C44.7115 46.0371 44.5359 46.0355 44.3636 46.027C44.242 46.0206 44.1223 46.0001 44.0001 46.0001C43.8861 46.0001 43.7747 46.0197 43.6613 46.0253C43.482 46.0335 43.2985 46.0359 43.1304 46.0568C43.1015 46.0603 43.0771 46.0671 43.0486 46.0709C42.9818 46.0801 42.9164 46.0936 42.8501 46.1049C42.7411 46.1221 42.6263 46.1343 42.5245 46.1604L42.5234 46.1615C42.4555 46.1714 42.3884 46.1865 42.3228 46.2063C42.2429 46.2247 42.1629 46.2533 42.0831 46.2775C42.0218 46.295 41.961 46.3125 41.9002 46.3318L41.879 46.3382C41.8076 46.3512 41.7381 46.3727 41.672 46.4026C41.5407 46.4504 41.4088 46.4993 41.3478 46.5306C41.2837 46.5539 41.2237 46.5887 41.1604 46.6167C41.0856 46.6501 41.0112 46.6831 40.9375 46.7192C40.9281 46.7243 40.9175 46.7274 40.9082 46.7326C40.7325 46.8104 40.5625 46.9006 40.3994 47.0022C40.3619 47.0235 40.3071 47.0557 40.2447 47.0997ZM46.7222 49.9248C46.6601 50.0345 46.6068 50.149 46.5627 50.2671C46.5588 50.2772 46.5528 50.2867 46.5489 50.2969C46.5399 50.3165 46.533 50.3395 46.5243 50.3595C46.4984 50.4209 46.4782 50.4716 46.4625 50.5163C46.4438 50.5657 46.4228 50.6106 46.4048 50.6631C46.3782 50.7298 46.3566 50.7983 46.3403 50.8682C46.2866 51.0083 46.2436 51.1522 46.2114 51.2988C46.1854 51.3894 46.1642 51.4814 46.1479 51.5742C46.1072 51.756 46.077 51.9398 46.0575 52.125C45.9809 52.7041 45.9807 53.2909 46.0571 53.8702L46.0731 54.0001H41.9267C41.9325 53.9582 41.9375 53.9161 41.9423 53.8731C42.0188 53.2956 42.0191 52.7105 41.9432 52.1329C41.9235 51.9441 41.8928 51.7566 41.8514 51.5713C41.8475 51.5479 41.8429 51.5293 41.8384 51.5078C41.8278 51.4514 41.8142 51.3958 41.7978 51.3408C41.7637 51.18 41.7176 51.022 41.6601 50.8682C41.6501 50.8267 41.6314 50.773 41.6134 50.7209C41.6058 50.6988 41.6034 50.6817 41.5938 50.6583C41.583 50.6271 41.57 50.6009 41.5589 50.5706C41.5247 50.4764 41.491 50.3823 41.4513 50.297C41.4024 50.1693 41.3445 50.0453 41.2779 49.9259C41.21 49.7678 41.1284 49.6158 41.0343 49.4718C40.9754 49.3614 40.91 49.2532 40.8413 49.15C42.6948 47.685 45.3123 47.6865 47.1641 49.1537C47.1068 49.2332 47.0543 49.3159 47.007 49.4016C46.898 49.5679 46.8029 49.7429 46.7222 49.9248ZM54 54H48.1026L48.0967 53.9736C48.0705 53.8588 48.0522 53.7423 48.042 53.625C47.9857 53.2086 47.986 52.7864 48.0429 52.3702C48.0527 52.2545 48.0706 52.1395 48.0966 52.0265C48.1015 52.0059 48.1171 51.92 48.121 51.8994L47.1405 51.7041L48.1532 51.7764C48.1741 51.6887 48.2008 51.6026 48.2332 51.5186C48.2453 51.4866 48.2598 51.4316 48.2713 51.3861L48.2762 51.3701L48.2818 51.3551L48.2831 51.3516L48.2982 51.3109C48.3119 51.2698 48.3272 51.2319 48.3427 51.1942C48.3607 51.1484 48.3805 51.0992 48.409 51.0333C48.426 50.9834 48.4479 50.9353 48.4744 50.8897C48.5039 50.8416 48.5291 50.7909 48.5496 50.7383C48.5989 50.6276 48.6577 50.5214 48.7254 50.421C48.7439 50.3897 48.7596 50.3565 48.7752 50.334C48.8069 50.2979 48.8356 50.2594 48.8611 50.2188C48.9501 50.0855 49.0463 49.957 49.1493 49.8342L49.1765 49.8516C49.2604 49.9138 49.3489 49.9696 49.4411 50.0186L49.4423 50.0191L49.4567 50.0283C49.6307 50.14 49.8135 50.2374 50.0032 50.3197C50.0148 50.325 50.0271 50.3337 50.0387 50.3387C50.0588 50.3493 50.0806 50.3558 50.1009 50.3658C50.1469 50.3872 50.1868 50.4048 50.2245 50.4197C50.257 50.4329 50.2875 50.4504 50.3209 50.4618C50.4264 50.5096 50.5407 50.5535 50.6608 50.5945C50.7272 50.6209 50.7954 50.6425 50.8649 50.659C51.0051 50.7124 51.1491 50.7556 51.2956 50.7879C51.3966 50.8173 51.4993 50.8402 51.6032 50.8562C51.6745 50.8729 51.7477 50.8855 51.8259 50.8962C51.9235 50.9158 52.0212 50.9293 52.1247 50.9421C52.7038 51.0186 53.2906 51.019 53.8698 50.9432C53.9138 50.9373 53.9568 50.9324 53.9997 50.9265L54 54Z" fill="#1C480A"/>
<path d="M57 0H3C1.34391 0.00175781 0.00175781 1.34391 0 3V57C0.00175781 58.6561 1.34391 59.9982 3 60H57C58.6561 59.9982 59.9982 58.6561 60 57V3C59.9982 1.34391 58.6561 0.00175781 57 0ZM58 57C57.9996 57.5521 57.5521 57.9996 57 58H3C2.44793 57.9994 2.00051 57.5521 2.00004 57V3C2.00062 2.44793 2.44793 2.00051 3 2.00004H57C57.5521 2.00039 57.9996 2.44793 58 3V57Z" fill="#1C480A"/>
</svg>
