<svg width="60" height="60" viewBox="0 0 60 60" fill="none" xmlns="http://www.w3.org/2000/svg">
<g clip-path="url(#clip0)">
<path d="M28.9874 22.8777C29.3784 23.2489 30.0284 23.1738 30.3255 22.7257L36.1752 13.8972C36.4435 13.4926 36.3327 12.9469 35.928 12.6787C35.5238 12.4109 34.9782 12.5217 34.7099 12.9259L29.4383 20.8818L26.5091 18.1004C26.1571 17.7663 25.6009 17.7809 25.2663 18.1329C24.9321 18.485 24.9468 19.0411 25.2988 19.3753C25.2983 19.3753 28.9842 22.8749 28.9874 22.8777Z" fill="#333333"/>
<path d="M29.5871 36.2833C29.7551 36.3602 29.941 36.4009 30.1259 36.4009H30.1332C30.3214 36.4 30.51 36.357 30.6784 36.2764C44.0433 29.9204 46.3083 16.2067 46.6837 12.155C46.7698 11.2299 46.2488 10.3683 45.3878 10.0113C42.7272 8.90671 40.9186 6.43662 40.6678 3.56506C40.5904 2.68112 39.8351 1.99219 38.9452 1.99219H38.9347L20.929 2.09793C20.0212 2.10297 19.2838 2.79282 19.2142 3.70239C18.9926 6.57486 17.2106 9.06281 14.5633 10.1953C13.711 10.5597 13.2028 11.4258 13.2999 12.3505C13.7229 16.3976 16.1486 30.0842 29.5871 36.2833ZM15.2545 11.8112C18.5006 10.4233 20.6873 7.37595 20.9652 3.85529L38.9191 3.75C39.2382 7.26288 41.456 10.2823 44.7139 11.6345C44.8595 11.6954 44.9479 11.8391 44.9337 11.993C44.5812 15.7901 42.4723 28.5933 30.1227 34.5932C17.7022 28.7393 15.445 15.9608 15.0476 12.1678C15.0316 12.0145 15.1149 11.8712 15.2545 11.8112Z" fill="#333333"/>
<path d="M17.449 16.6836C17.5552 17.0746 18.0509 17.4325 18.5279 17.3012C18.9958 17.1721 19.2727 16.691 19.1455 16.2227C18.9216 15.3978 18.7335 14.5614 18.5856 13.7329C20.9733 12.1769 22.7453 9.85471 23.6146 7.14246L36.3075 7.06784C37.2084 9.76911 39.0074 12.0712 41.4134 13.5988C41.2756 14.4296 41.0971 15.2687 40.8824 16.0968C40.7606 16.5669 41.043 17.0466 41.5127 17.1684C41.9833 17.2902 42.4626 17.0077 42.5843 16.5376C42.8361 15.5653 43.0412 14.5784 43.1932 13.6043C43.2783 13.06 43.0293 12.5248 42.5596 12.241C40.3184 10.8874 38.6618 8.76386 37.895 6.26172C37.7224 5.69913 37.1919 5.3082 36.6032 5.3082H36.5949L23.3061 5.38602C22.7137 5.38968 22.1836 5.78839 22.0175 6.3551C21.2805 8.86594 19.6485 11.0087 17.4234 12.3889C16.9569 12.6777 16.7147 13.2156 16.8058 13.7594C16.9697 14.7313 17.1858 15.715 17.449 16.6836Z" fill="#333333"/>
<path d="M40.8078 19.2897C40.3592 19.1039 39.8456 19.3181 39.6602 19.7667C37.6291 24.6895 34.4138 28.4322 30.1007 30.8954C25.7543 28.4798 22.4923 24.7687 20.4039 19.8615C20.2135 19.4152 19.6971 19.2073 19.2508 19.3973C18.804 19.5873 18.5962 20.1036 18.7862 20.55C21.0654 25.9049 24.6561 29.9419 29.4585 32.5479C29.6608 32.6583 29.8824 32.7127 30.1035 32.7127C30.3301 32.7127 30.5562 32.6555 30.7622 32.5406C35.5284 29.8815 39.0688 25.8092 41.2853 20.4369C41.4707 19.9883 41.2569 19.4747 40.8078 19.2897Z" fill="#333333"/>
<path d="M5.63913 46.9656C3.9248 46.9656 2.52954 48.3604 2.52954 50.0752C2.52954 51.79 3.9248 53.1848 5.63913 53.1848C7.35391 53.1848 8.74918 51.79 8.74918 50.0752C8.74918 48.3604 7.35437 46.9656 5.63913 46.9656ZM5.63913 51.427C4.89389 51.427 4.28735 50.8209 4.28735 50.0752C4.28735 49.33 4.89389 48.7234 5.63913 48.7234C6.38483 48.7234 6.99136 49.33 6.99136 50.0752C6.99136 50.8209 6.38483 51.427 5.63913 51.427Z" fill="#333333"/>
<path d="M59.3697 38.3611C58.2431 36.7058 55.9749 36.2672 54.3137 37.3833L42.8238 45.0732L40.3711 44.9355L40.3084 44.3074C40.0639 41.8478 38.1839 39.8882 35.7367 39.5421C35.7211 39.5398 35.706 39.538 35.6905 39.5366L23.3098 38.4517C22.8909 38.3862 21.5501 38.0013 17.8661 35.8882C15.9512 34.79 13.7938 34.1702 11.602 34.086V31.7867C11.602 30.6326 10.6636 29.6942 9.50958 29.6942H2.09244C0.938873 29.6942 0 30.6331 0 31.7867V54.4327C0 55.5862 0.938873 56.5251 2.09244 56.5251H9.50958C10.6631 56.5251 11.602 55.5862 11.602 54.4327V53.8087L22.4245 57.9071C22.4483 57.9163 23.3272 58.2449 24.9431 58.0925C24.9477 58.092 42.9254 55.5002 42.9254 55.5002C42.93 55.4997 42.9341 55.4988 42.9387 55.4979C44.4749 55.253 45.9238 54.6034 47.1291 53.6206C47.14 53.6115 47.1506 53.6023 47.1611 53.5931L58.775 43.1474C60.1437 41.9321 60.3996 39.8744 59.3697 38.3611ZM57.6036 41.8369L46.002 52.2716C45.0417 53.0502 43.889 53.5652 42.6677 53.7611L24.6986 56.3516C24.6945 56.3521 24.6886 56.353 24.6831 56.3539C24.6803 56.3544 24.6771 56.3548 24.6744 56.3553C24.137 56.44 23.5771 56.4043 23.0099 56.2491L11.602 51.9292V41.8918C11.602 41.4061 11.2083 41.0129 10.7231 41.0129C10.2374 41.0129 9.84421 41.4061 9.84421 41.8918V54.4327C9.84421 54.6172 9.69406 54.7673 9.50958 54.7673H2.09244C1.90796 54.7673 1.75781 54.6172 1.75781 54.4327V31.7867C1.75781 31.6022 1.90796 31.452 2.09244 31.452H9.50958C9.69406 31.452 9.84421 31.6022 9.84421 31.7867V37.9216C9.84421 38.4073 10.2379 38.8005 10.7231 38.8005C11.2088 38.8005 11.602 38.4068 11.602 37.9216V35.8456C13.4875 35.929 15.3424 36.4673 16.9913 37.4135C21.4348 39.9619 22.6758 40.1376 23.0836 40.1953C23.0992 40.1976 23.1143 40.199 23.1299 40.2008L35.5119 41.2857C37.1443 41.5269 38.3958 42.838 38.5593 44.4814L38.606 44.9496L22.029 45.9732C22.0175 45.9723 22.0061 45.9714 21.996 45.9705C21.4586 45.9219 20.9734 45.6679 20.6287 45.255C20.3178 44.8819 19.7635 44.8315 19.3909 45.1428C19.0178 45.4536 18.9674 46.008 19.2787 46.3806C19.9237 47.1542 20.8337 47.617 21.8394 47.7214C22.3824 47.7782 39.5728 46.6512 39.5728 46.6512L43.0188 46.8448C43.2092 46.8558 43.3983 46.8036 43.5567 46.6974L55.2928 38.8431C56.1548 38.264 57.3317 38.4911 57.9163 39.3498C58.4505 40.1353 58.3177 41.2029 57.6036 41.8369Z" fill="#333333"/>
</g>
<defs>
<clipPath id="clip0">
<rect width="60" height="60" rx="5" fill="white"/>
</clipPath>
</defs>
</svg>
