<svg width="25" height="25" viewBox="0 0 25 25" fill="none" xmlns="http://www.w3.org/2000/svg">
<path d="M24.2179 24.2056C23.158 25.2648 21.4622 25.2648 20.4024 24.2056L0.794897 4.71718C-0.264966 3.65803 -0.264966 1.96338 0.794897 0.904228C1.85476 -0.154925 3.55054 -0.154925 4.61041 0.904228L24.1119 20.3926C25.2777 21.3459 25.2777 23.1464 24.2179 24.2056Z" fill="white"/>
<path d="M0.794892 24.2014C-0.264964 23.1422 -0.264964 21.4476 0.794892 20.3885L20.2962 0.794356C21.3561 -0.264785 23.0519 -0.264785 24.1117 0.794356C25.1716 1.8535 25.1716 3.54812 24.1117 4.60727L4.71636 24.2014C3.6565 25.2605 1.85475 25.2605 0.794892 24.2014Z" fill="white"/>
</svg>
