<svg width="60" height="60" viewBox="0 0 60 60" fill="none" xmlns="http://www.w3.org/2000/svg">
<path d="M53.4324 30L58.7829 20.7325C58.94 20.4606 58.94 20.1254 58.7829 19.8536L53.1787 10.1464C53.0216 9.87457 52.7316 9.70699 52.4175 9.70699H41.7162L36.3655 0.439453C36.2085 0.167578 35.9185 0 35.6044 0H24.3958C24.0817 0 23.7917 0.167578 23.6346 0.439453L18.0303 10.1464C17.8732 10.4183 17.8732 10.7535 18.0303 11.0254L23.3808 20.293L18.2839 29.1211H7.58253C7.26847 29.1211 6.97843 29.2887 6.8214 29.5605L1.21714 39.2675C1.06011 39.5394 1.06011 39.8746 1.21714 40.1464L6.8214 49.8536C6.97843 50.1254 7.26847 50.293 7.58253 50.293H18.2839L23.6345 59.5605C23.7916 59.8324 24.0816 60 24.3957 60H35.6044C35.9185 60 36.2085 59.8324 36.3655 59.5605L41.7161 50.293H52.4174C52.7315 50.293 53.0215 50.1254 53.1785 49.8536L58.7829 40.1464C58.94 39.8746 58.94 39.5394 58.7829 39.2675L53.4324 30ZM57.0069 20.293L51.9101 29.1211H41.7162L36.6194 20.293L41.7162 11.4648H51.9101L57.0069 20.293ZM24.9032 1.75781H35.097L40.1938 10.5859L35.097 19.4141H24.9031L19.8062 10.5859L24.9032 1.75781ZM24.9031 21.1719H35.097L40.1938 30L35.097 38.8281H24.9031L19.8062 30L24.9031 21.1719ZM35.097 58.2422H24.9031L19.8061 49.414L21.4757 46.5223C21.7184 46.1019 21.5744 45.5644 21.154 45.3217C20.7338 45.079 20.196 45.2229 19.9534 45.6434L18.2837 48.5352H8.08995L2.99312 39.707L8.08995 30.8789H18.2839L23.3807 39.707L21.7111 42.5988C21.4684 43.0192 21.6125 43.5567 22.0328 43.7994C22.1713 43.8793 22.3224 43.9173 22.4714 43.9173C22.7752 43.9173 23.0706 43.7597 23.2334 43.4777L24.903 40.5859H35.0969L40.1937 49.414L35.097 58.2422ZM51.91 48.5352H41.7162L36.6194 39.707L41.7162 30.8789H51.9101L57.0069 39.707L51.91 48.5352Z" fill="#1C480A"/>
</svg>
