<svg width="60" height="60" viewBox="0 0 60 60" fill="none" xmlns="http://www.w3.org/2000/svg">
<g clip-path="url(#clip0)">
<path d="M56.9998 39.9998H47.3117L55.6975 35.1576C56.3887 34.7621 56.8941 34.108 57.1019 33.3389C57.3102 32.5699 57.2035 31.75 56.8057 31.0602L49.8038 18.9359C49.4051 18.2465 48.7482 17.7438 47.9787 17.5392C47.2092 17.3305 46.3879 17.4403 45.7004 17.8436L37.3128 22.6872L42.1536 14.3037C42.5555 13.6143 42.6659 12.7931 42.4608 12.0218C42.2557 11.2505 41.7513 10.5927 41.06 10.1944L28.9375 3.19244C28.2477 2.79602 27.4287 2.69028 26.6611 2.8981C25.8934 3.10593 25.2397 3.60992 24.8438 4.29977L20.0002 12.6901V3.00018C19.9983 1.34399 18.6562 0.00183105 17 0H3.00018C1.34399 0.00183105 0.00183105 1.34399 0 3.00018V56.9998C0.00183105 58.656 1.34399 59.9982 3.00018 60H56.9998C58.656 59.9982 59.9982 58.656 60 56.9998V43C59.9982 41.3438 58.656 40.0017 56.9998 39.9998ZM3.00018 39.9998C2.65869 40.0035 2.3204 40.0658 1.99997 40.1843V30H10.0058L4.23248 39.9998H3.00018ZM43.3118 39.9998H29.637L25.0557 32.0746L35.4465 26.0747L43.4427 39.9248L43.3118 39.9998ZM33.8475 24.6881L22.0088 31.5248L14.0785 26.9458L20.0761 16.5578L33.9253 24.5535L33.8475 24.6881ZM18.0002 16.1536L11.8552 26.7975C11.852 26.8025 11.8469 26.8048 11.8437 26.8103L11.8382 26.8263L11.1607 28H1.99997V16.0002H18.0002V16.1536ZM13.0788 28.678L20.0089 32.6797L7.332 39.9998H6.5419L13.0788 28.678ZM22.4959 33.5532L22.5087 33.5458L23.324 33.0748L27.3271 39.9998H11.3319L22.4959 33.5532ZM18.0002 41.9998H30V58H18.0002V41.9998ZM32 41.9998H43.9998V58H32V41.9998ZM46.7043 19.5735C46.9322 19.4389 47.2055 19.4019 47.4614 19.4705C47.7196 19.5401 47.9398 19.7086 48.0743 19.9397L55.0722 32.0576C55.2054 32.2879 55.2411 32.5616 55.1711 32.8185C55.101 33.0748 54.9316 33.2932 54.7 33.4236L45.1744 38.9236L37.1786 25.074L46.7043 19.5735ZM26.5778 5.29678C26.7087 5.06699 26.9261 4.89853 27.182 4.82895C27.4374 4.75937 27.7103 4.79416 27.9401 4.92599L40.0562 11.9238C40.2892 12.058 40.4594 12.2791 40.5295 12.5386C40.5981 12.7963 40.5602 13.0705 40.4237 13.2999L34.926 22.8214L21.0764 14.8256L26.5778 5.29678ZM3.00018 1.99997H17C17.552 2.00089 17.9993 2.44812 18.0002 3.00018V13.9998H1.99997V3.00018C2.00089 2.44812 2.44812 2.00089 3.00018 1.99997ZM1.99997 56.9998V43C2.00089 42.448 2.44812 42.0007 3.00018 41.9998H16.0002V58H3.00018C2.44812 57.9991 2.00089 57.5519 1.99997 56.9998ZM58 56.9998C57.9991 57.5519 57.5519 57.9991 56.9998 58H46.0002V41.9998H56.9998C57.5519 42.0007 57.9991 42.448 58 43V56.9998Z" fill="#1C480A"/>
<path d="M9.99994 46.0002C7.79077 46.0002 6 47.791 6 50.0002C6 52.2094 7.79077 54.0001 9.99994 54.0001C12.2091 54.0001 13.9999 52.2094 13.9999 50.0002C13.9976 47.7919 12.2082 46.0025 9.99994 46.0002ZM9.99994 52.0002C8.89536 52.0002 7.99997 51.1048 7.99997 50.0002C7.99997 48.8956 8.89536 48.0002 9.99994 48.0002C11.1045 48.0002 11.9999 48.8956 11.9999 50.0002C11.999 51.1043 11.1041 51.9988 9.99994 52.0002Z" fill="#1C480A"/>
</g>
<defs>
<clipPath id="clip0">
<rect width="60" height="60" fill="white"/>
</clipPath>
</defs>
</svg>
