<svg width="60" height="60" viewBox="0 0 60 60" fill="none" xmlns="http://www.w3.org/2000/svg">
<path d="M43.3268 54.0657C37.1485 57.6328 29.9509 58.5803 23.0598 56.7338C17.2483 55.1766 12.2416 51.7893 8.67597 47.0605C9.11665 47.0382 9.52605 46.768 9.7031 46.3323C9.9467 45.7329 9.65811 45.0493 9.05865 44.8057L6.17938 43.6356C5.84462 43.4996 5.46557 43.5256 5.15237 43.7064C4.83928 43.8871 4.6272 44.2023 4.57764 44.5605L4.15137 47.6389C4.06255 48.28 4.51026 48.8716 5.15131 48.9603C5.2058 48.9678 5.25993 48.9715 5.31348 48.9715C5.87345 48.9715 6.36264 48.5694 6.46376 48.008C10.361 53.3957 15.9423 57.253 22.4533 58.9976C24.9562 59.6683 27.496 60 30.0197 60C35.0536 60 40.0221 58.6797 44.4984 56.0952C45.0589 55.7717 45.2509 55.0551 44.9273 54.4947C44.6039 53.9343 43.8873 53.7421 43.3268 54.0657Z" fill="#1C480A"/>
<path d="M56.5119 42.8086C59.2293 36.7396 59.7792 29.9773 58.0345 23.4663C56.026 15.9706 51.2188 9.70571 44.4985 5.82567C43.938 5.50204 43.2216 5.69409 42.8979 6.25452C42.5743 6.81496 42.7664 7.53158 43.3268 7.8551C49.5052 11.4222 53.9244 17.1818 55.7709 24.0728C57.3282 29.8843 56.898 35.9138 54.5855 41.3662C54.3461 40.9961 53.9078 40.7766 53.4412 40.8409C52.8002 40.9296 52.3526 41.5214 52.4414 42.1623L52.8678 45.2407C52.9173 45.5988 53.1294 45.914 53.4425 46.0947C53.6229 46.1989 53.8253 46.2517 54.0284 46.2517C54.1777 46.2517 54.3276 46.2231 54.4695 46.1655L57.3487 44.9954C57.9481 44.7518 58.2367 44.0682 57.9931 43.4688C57.7555 42.8844 57.1 42.5968 56.5119 42.8086Z" fill="#1C480A"/>
<path d="M26.6992 4.45462C26.4983 4.84727 26.5274 5.33705 26.8163 5.70813C27.0473 6.00504 27.3927 6.16042 27.7418 6.16042C27.9933 6.16042 28.2467 6.0798 28.4605 5.91342L30.9135 4.00503C31.199 3.78299 31.3657 3.44179 31.3657 3.08019C31.3657 2.7186 31.1988 2.3774 30.9135 2.15535L28.4605 0.247088C27.9499 -0.150242 27.2137 -0.0583794 26.8163 0.452374C26.4289 0.950239 26.5076 1.66147 26.985 2.06513C20.3704 2.74637 14.239 5.6513 9.47267 10.4177C3.98549 15.9049 0.963623 23.2005 0.963623 30.9606C0.963623 31.6077 1.48832 32.1323 2.13534 32.1323C2.78237 32.1323 3.30707 31.6077 3.30707 30.9606C3.30707 23.8265 6.08522 17.1194 11.1298 12.0748C15.3841 7.82039 20.821 5.17804 26.6992 4.45462Z" fill="#1C480A"/>
<path d="M23.2613 12.568C19.7352 16.9533 17.7935 22.4731 17.7935 28.1109C17.7935 32.3752 18.8934 36.5818 20.9742 40.2759C22.884 43.6666 25.5903 46.5842 28.8246 48.7507V52.4604C28.8246 53.1076 29.3493 53.6321 29.9963 53.6321C30.6434 53.6321 31.1681 53.1076 31.1681 52.4604V48.7524C33.68 47.0723 35.8429 44.9725 37.6032 42.5029C39.5208 39.8126 40.8614 36.8205 41.5877 33.61C41.7304 32.9788 41.3345 32.3513 40.7033 32.2086C40.0721 32.0654 39.4447 32.4618 39.3019 33.0929C38.1624 38.1303 35.2426 42.6791 31.1681 45.8598V37.5499L35.0869 33.6311C35.5444 33.1735 35.5444 32.4316 35.0869 31.9739C34.6292 31.5164 33.8875 31.5164 33.4297 31.9739L31.1679 34.2357V29.3577L34.6574 25.8681C35.115 25.4105 35.115 24.6686 34.6574 24.211C34.1998 23.7535 33.4581 23.7535 33.0003 24.211L31.1678 26.0435V21.5493C31.1678 20.9022 30.6431 20.3776 29.9961 20.3776C29.3491 20.3776 28.8244 20.9022 28.8244 21.5493V26.0065L27.029 24.211C26.5713 23.7535 25.8296 23.7535 25.3718 24.211C24.9142 24.6686 24.9142 25.4105 25.3718 25.8682L28.8244 29.3208V34.1988L26.5996 31.974C26.142 31.5165 25.4003 31.5165 24.9425 31.974C24.4849 32.4316 24.4849 33.1735 24.9425 33.6311L28.8244 37.5129V45.8654C23.3476 41.6187 20.1367 35.1302 20.1367 28.1109C20.1367 22.9313 21.8485 18.0644 25.0874 14.0364C26.2861 12.5452 28.0753 11.6901 29.9961 11.6901C31.9169 11.6901 33.706 12.5452 34.9049 14.0364C37.035 16.6856 38.5554 19.8298 39.3018 23.1291C39.4446 23.7603 40.0711 24.1558 40.7033 24.0134C41.3345 23.8705 41.7304 23.2432 41.5876 22.612C40.7628 18.9668 39.0835 15.4936 36.7312 12.568C35.0852 10.5209 32.6305 9.34668 29.9962 9.34668C27.362 9.34668 24.9072 10.5207 23.2613 12.568Z" fill="#1C480A"/>
<path d="M41.0274 29.2827C41.6746 29.2827 42.1992 28.7581 42.1992 28.1109C42.1992 27.4638 41.6746 26.9392 41.0274 26.9392C40.3803 26.9392 39.8557 27.4638 39.8557 28.1109C39.8557 28.7581 40.3803 29.2827 41.0274 29.2827Z" fill="#1C480A"/>
</svg>
