<svg width="32" height="32" viewBox="0 0 32 32" fill="none" xmlns="http://www.w3.org/2000/svg">
<g clip-path="url(#clip0)">
<path d="M0 16C0 24.8366 7.1634 32 16 32C24.8367 32 32.0001 24.8366 32.0001 16C32.0001 7.16334 24.8367 -6.48499e-05 16 -6.48499e-05C7.1634 -6.48499e-05 0 7.16334 0 16Z" fill="url(#paint0_linear)"/>
<path d="M10.8306 17.1694L12.7289 22.4236C12.7289 22.4236 12.9662 22.915 13.2204 22.915C13.4746 22.915 17.2543 18.9828 17.2543 18.9828L21.4577 10.8642L10.8984 15.8133L10.8306 17.1694Z" fill="#C8DAEA"/>
<path d="M13.3474 18.5169L12.9829 22.3897C12.9829 22.3897 12.8304 23.5761 14.0168 22.3897C15.2033 21.2032 16.3389 20.288 16.3389 20.288" fill="#A9C6D8"/>
<path d="M10.8648 17.3568L6.96036 16.0846C6.96036 16.0846 6.49432 15.8954 6.64402 15.466C6.67493 15.3774 6.73717 15.3022 6.92361 15.1721C7.78897 14.5692 22.9377 9.12414 22.9377 9.12414C22.9377 9.12414 23.3655 8.98014 23.6184 9.07587C23.734 9.11966 23.8077 9.16915 23.8698 9.34976C23.8925 9.41553 23.9055 9.55532 23.9037 9.69444C23.9024 9.79478 23.8902 9.88766 23.8812 10.0334C23.789 11.5222 21.0283 22.6325 21.0283 22.6325C21.0283 22.6325 20.8632 23.2827 20.2713 23.3048C20.0554 23.3129 19.7935 23.2691 19.4802 22.9997C18.3189 22.0006 14.3044 19.3027 13.4175 18.7095C13.3673 18.6762 13.3532 18.6326 13.3446 18.5902C13.3322 18.5278 13.3989 18.45 13.3989 18.45C13.3989 18.45 20.389 12.2364 20.575 11.5845C20.5894 11.5339 20.5353 11.509 20.4619 11.5308C19.9977 11.7016 11.9494 16.7837 11.0612 17.345C11.0093 17.3779 10.8637 17.3567 10.8637 17.3567" fill="white"/>
</g>
<defs>
<linearGradient id="paint0_linear" x1="16" y1="31.9999" x2="16" y2="-0.000200443" gradientUnits="userSpaceOnUse">
<stop stop-color="#1D93D2"/>
<stop offset="1" stop-color="#38B0E3"/>
</linearGradient>
<clipPath id="clip0">
<rect width="32" height="32" fill="white"/>
</clipPath>
</defs>
</svg>
