<svg width="60" height="60" viewBox="0 0 60 60" fill="none" xmlns="http://www.w3.org/2000/svg">
<path d="M35.2349 33.0685V7.87133C35.2349 3.52406 31.7108 0 27.3636 0C23.0163 0 19.4922 3.52406 19.4922 7.87133V33.0573C12.6887 37.398 10.6921 46.4323 15.0328 53.2358C17.7115 57.4343 22.3441 59.9794 27.3244 59.9888L27.4027 60C35.4731 59.9849 42.003 53.4304 41.9879 45.3601C41.9785 40.3799 39.4334 35.7473 35.2349 33.0685ZM21.2153 56.1105C15.2911 52.6902 13.2615 45.115 16.6817 39.1909C17.7689 37.308 19.3324 35.7445 21.2153 34.6573C21.5629 34.4566 21.7763 34.0852 21.7747 33.6839V7.87133C21.7747 4.76 24.297 2.23776 27.4083 2.23776C30.5196 2.23776 33.0419 4.76 33.0419 7.87133V33.6839C33.0403 34.0852 33.2538 34.4566 33.6013 34.6573C39.5255 38.0776 41.5552 45.6529 38.1349 51.5769C34.7146 57.5011 27.1394 59.5309 21.2153 56.1105Z" fill="#1C480A"/>
<path d="M28.5216 37.3427V20.3692C28.5216 19.7513 28.0207 19.2504 27.4028 19.2504C26.7849 19.2504 26.2839 19.7513 26.2839 20.3692V37.3427C22.0572 37.9488 19.1221 41.8666 19.7282 46.0933C20.2753 49.9084 23.5486 52.7379 27.4028 52.7273C31.6727 52.739 35.1437 49.2872 35.1556 45.0172C35.1662 41.1631 32.3367 37.8898 28.5216 37.3427ZM27.4028 50.4783C24.3686 50.4783 21.9091 48.0188 21.9091 44.9846C21.9152 41.9532 24.3711 39.4971 27.4028 39.4909C30.4369 39.4909 32.8965 41.9505 32.8965 44.9846C32.8965 48.0188 30.4367 50.4783 27.4028 50.4783Z" fill="#1C480A"/>
<path d="M46.1439 7.69226H39.1509C38.533 7.69226 38.032 8.19324 38.032 8.81114C38.032 9.42905 38.533 9.93003 39.1509 9.93003H46.1439C46.7618 9.93003 47.2627 9.42905 47.2627 8.81114C47.2627 8.19324 46.7618 7.69226 46.1439 7.69226Z" fill="#1C480A"/>
<path d="M44.6558 13.2867H40.5495C39.9316 13.2867 39.4307 13.7877 39.4307 14.4056C39.4307 15.0235 39.9316 15.5245 40.5495 15.5245H44.6558C45.2737 15.5245 45.7747 15.0235 45.7747 14.4056C45.7747 13.7877 45.2737 13.2867 44.6558 13.2867Z" fill="#1C480A"/>
<path d="M46.1439 18.8811H39.1509C38.533 18.8811 38.032 19.3821 38.032 20C38.032 20.6179 38.533 21.1189 39.1509 21.1189H46.1439C46.7618 21.1189 47.2627 20.6179 47.2627 20C47.2627 19.3821 46.7618 18.8811 46.1439 18.8811Z" fill="#1C480A"/>
<path d="M44.6558 24.4755H40.5495C39.9316 24.4755 39.4307 24.9764 39.4307 25.5943C39.4307 26.2122 39.9316 26.7132 40.5495 26.7132H44.6558C45.2737 26.7132 45.7747 26.2122 45.7747 25.5943C45.7747 24.9764 45.2737 24.4755 44.6558 24.4755Z" fill="#1C480A"/>
<path d="M46.1439 30.0699H39.1509C38.533 30.0699 38.032 30.5709 38.032 31.1888C38.032 31.8067 38.533 32.3077 39.1509 32.3077H46.1439C46.7618 32.3077 47.2627 31.8067 47.2627 31.1888C47.2627 30.5709 46.7618 30.0699 46.1439 30.0699Z" fill="#1C480A"/>
</svg>
