<svg width="60" height="60" viewBox="0 0 60 60" fill="none" xmlns="http://www.w3.org/2000/svg">
<g clip-path="url(#clip0)">
<path d="M30.0915 60.0002C29.8914 60.0002 29.6902 59.9371 29.5213 59.8116L0.742895 38.4799C0.494011 38.2957 0.350382 38.0019 0.355864 37.6922C0.360798 37.3824 0.516488 37.0941 0.77195 36.9198L4.15875 34.5992C4.59621 34.3005 5.19156 34.4128 5.49088 34.8481C5.7891 35.285 5.67836 35.8809 5.24145 36.1802L2.96366 37.741L30.0915 57.849L57.2423 37.7245L54.9985 36.1216C54.5687 35.8135 54.4684 35.2154 54.7759 34.7856C55.0835 34.3553 55.6827 34.255 56.1119 34.5625L59.4269 36.9307C59.6763 37.1083 59.8254 37.3956 59.8282 37.7015C59.8309 38.0085 59.6867 38.2974 59.4406 38.4799L30.6616 59.811C30.4933 59.9371 30.2921 60.0002 30.0915 60.0002Z" fill="#1C480A"/>
<path d="M30.0915 55.1705C29.8914 55.1705 29.6902 55.1075 29.5213 54.9819L0.742895 33.6497C0.494011 33.4644 0.350382 33.1717 0.355864 32.8614C0.360798 32.5517 0.516488 32.2639 0.77195 32.089L3.90986 29.94C4.34897 29.6418 4.94267 29.7537 5.24199 30.1889C5.54076 30.6258 5.42948 31.2217 4.99311 31.5216L2.96366 32.9107L30.0915 53.0194L57.2428 32.8938L55.3121 31.5145C54.8817 31.2075 54.7814 30.6088 55.0889 30.1785C55.3965 29.7487 55.9962 29.6484 56.4255 29.9559L59.428 32.1005C59.6774 32.2781 59.8265 32.5648 59.8293 32.8713C59.832 33.1772 59.6878 33.4672 59.4417 33.6497L30.6627 54.9819C30.4933 55.1075 30.2921 55.1705 30.0915 55.1705Z" fill="#1C480A"/>
<path d="M48.4284 21.5493C48.236 21.5493 48.0408 21.4917 47.8725 21.3706L38.2549 14.5016C37.8245 14.1946 37.7247 13.596 38.0323 13.1656C38.3398 12.7353 38.939 12.6355 39.3683 12.943L48.9859 19.812C49.4163 20.119 49.5166 20.7177 49.209 21.148C49.0221 21.41 48.7277 21.5493 48.4284 21.5493Z" fill="#1C480A"/>
<path d="M20.2941 43.0778C20.0962 43.0778 19.8966 43.017 19.7245 42.8898L10.279 35.8887C9.85412 35.5735 9.76531 34.9737 10.0794 34.5478C10.3957 34.1229 10.9944 34.0347 11.4203 34.3488L20.8664 41.3499C21.2913 41.6651 21.3795 42.2648 21.0654 42.6902C20.8774 42.9441 20.5868 43.0778 20.2941 43.0778Z" fill="#1C480A"/>
<path d="M24.4248 25.6888C24.3398 25.6888 24.2537 25.6779 24.1693 25.6543L11.1583 22.0559C10.7992 21.9567 10.53 21.6585 10.4692 21.2906C10.4078 20.9228 10.5651 20.5522 10.8721 20.3417L30.1551 7.13492C30.4879 6.90742 30.9259 6.91235 31.2532 7.14644L39.3688 12.9431C39.616 13.1202 39.7651 13.4025 39.77 13.7068C39.775 14.011 39.6352 14.2988 39.394 14.4836L25.0075 25.4915C24.8381 25.6203 24.6325 25.6888 24.4248 25.6888ZM13.6553 20.7583L24.2214 23.6802L37.2012 13.749L30.6852 9.0953L13.6553 20.7583Z" fill="#1C480A"/>
<path d="M10.849 36.0772C10.6489 36.0772 10.4477 36.0141 10.2789 35.8886L0.742895 28.8201C0.494011 28.6348 0.350382 28.342 0.355864 28.0323C0.360798 27.722 0.516488 27.4342 0.77195 27.2593L10.8715 20.3416C11.3095 20.0422 11.9043 20.1563 12.2036 20.591C12.5024 21.0279 12.3911 21.6238 11.9547 21.9231L2.96366 28.0811L10.8402 33.9195L23.8431 23.9701C24.2624 23.6489 24.866 23.7284 25.1861 24.1488C25.5079 24.5688 25.4274 25.1707 25.0074 25.4914L11.4317 35.8793C11.2602 36.0114 11.054 36.0772 10.849 36.0772Z" fill="#1C480A"/>
<path d="M30.0916 50.3398C29.8915 50.3398 29.6903 50.2773 29.5214 50.1518L19.7245 42.8897C19.4833 42.7099 19.3391 42.4276 19.3369 42.1272C19.3353 41.8257 19.4734 41.5412 19.713 41.3586L33.3556 30.9203C33.6204 30.7169 33.9729 30.6659 34.2842 30.7887C34.5956 30.9093 34.8215 31.184 34.8801 31.5129L37.2171 44.6308C37.2813 44.9893 37.1371 45.3523 36.8449 45.5693L30.6628 50.1518C30.4934 50.2773 30.2922 50.3398 30.0916 50.3398ZM21.8877 42.1074L30.0916 48.1887L35.2277 44.383L33.2701 33.3976L21.8877 42.1074Z" fill="#1C480A"/>
<path d="M36.2753 45.7574C35.9815 45.7574 35.6921 45.6242 35.5046 45.3699C35.1899 44.9444 35.2787 44.3447 35.7036 44.0295L57.243 28.0642L48.4498 21.7829L34.5194 32.4422C34.1012 32.7639 33.4976 32.6845 33.1769 32.2634C32.8551 31.8435 32.9351 31.2416 33.3556 30.9209L47.8479 19.8313C48.1807 19.5753 48.6439 19.5665 48.9865 19.8127L59.4281 27.271C59.6776 27.4486 59.8267 27.7353 59.8294 28.0417C59.8321 28.3482 59.688 28.6376 59.4418 28.8202L36.8449 45.5694C36.6728 45.6966 36.4732 45.7574 36.2753 45.7574Z" fill="#1C480A"/>
<path d="M25.1128 7.14254C24.8677 7.14254 24.6227 7.0488 24.4352 6.86186L21.4014 3.82756C21.027 3.45314 21.027 2.84683 21.4014 2.47296C21.7753 2.09853 22.3816 2.09853 22.756 2.47296L25.7903 5.50671C26.1642 5.88113 26.1642 6.48744 25.7903 6.86186C25.6028 7.0488 25.3578 7.14254 25.1128 7.14254Z" fill="#1C480A"/>
<path d="M36.279 7.14254C36.0334 7.14254 35.7889 7.0488 35.6014 6.86186C35.2276 6.48744 35.2276 5.88113 35.6014 5.50671L38.6357 2.47296C39.0096 2.09853 39.6159 2.09853 39.9903 2.47296C40.3642 2.84683 40.3642 3.45314 39.9903 3.82756L36.9561 6.86186C36.7691 7.0488 36.5241 7.14254 36.279 7.14254Z" fill="#1C480A"/>
<path d="M29.8701 5.74845C29.3406 5.74845 28.9119 5.31976 28.9119 4.79019V0.958258C28.9119 0.428694 29.3406 0 29.8701 0C30.3991 0 30.8278 0.428694 30.8278 0.958258V4.79019C30.8278 5.3203 30.3997 5.74845 29.8701 5.74845Z" fill="#1C480A"/>
</g>
<defs>
<clipPath id="clip0">
<rect width="60" height="60" fill="white"/>
</clipPath>
</defs>
</svg>
