<svg width="32" height="32" viewBox="0 0 32 32" fill="none" xmlns="http://www.w3.org/2000/svg">
<g clip-path="url(#clip0)">
<path d="M-0.761963 32L1.99004 23.7446C0.593623 21.3959 -0.210239 18.6549 -0.210239 15.7241C-0.210239 7.04 6.82976 0 15.5139 0C24.198 0 31.238 7.04 31.238 15.7241C31.238 24.4083 24.198 31.4483 15.5139 31.4483C12.8717 31.4483 10.3834 30.7934 8.19804 29.6425L-0.761963 32Z" fill="#7F4DA0"/>
<path d="M20.2628 13.9723C20.185 13.3401 19.9907 12.8437 19.6456 12.404C19.1975 11.8378 18.6249 11.4988 17.7771 11.2976C17.2245 11.1636 17.0013 11.179 16.8015 11.3615C16.6154 11.5325 16.5791 11.8753 16.7213 12.0974C16.8213 12.2585 16.9367 12.3162 17.2577 12.3792C17.6851 12.4578 17.9805 12.5599 18.2491 12.7135C18.8194 13.0428 19.085 13.5581 19.1135 14.3924C19.1267 14.784 19.1606 14.9044 19.2974 15.0434C19.5509 15.2973 20.0022 15.248 20.1937 14.944C20.2639 14.8295 20.2746 14.7796 20.282 14.5137C20.2869 14.349 20.2798 14.1039 20.2628 13.9723Z" fill="white"/>
<path d="M22.4964 14.6853C22.3838 12.7484 21.6262 11.19 20.2703 10.0936C19.5064 9.4775 18.583 9.0539 17.5708 8.8479C17.2 8.77417 16.5174 8.7145 16.4003 8.74863C16.2898 8.7803 16.1335 8.8999 16.0638 9.00817C15.9901 9.1255 15.9735 9.3875 16.0364 9.53903C16.1378 9.79237 16.3265 9.8819 16.855 9.92817C17.6698 9.99943 18.5101 10.2856 19.145 10.7094C19.8699 11.1919 20.4462 11.8518 20.8189 12.6273C21.141 13.2936 21.3391 14.2538 21.3336 15.1137C21.3318 15.4246 21.3798 15.6003 21.5048 15.7287C21.6936 15.9261 21.9688 15.9693 22.2117 15.8382C22.4808 15.6966 22.5438 15.4482 22.4964 14.6853Z" fill="white"/>
<path d="M24.9681 22.1442C24.9302 22.0335 24.8418 21.8628 24.7787 21.7647C24.3808 21.1638 22.243 19.4908 21.1756 18.9437C20.5662 18.6306 20.1146 18.5263 19.7799 18.6242C19.4199 18.7255 19.2304 18.8931 18.6273 19.6426C18.3842 19.9431 18.1347 20.2246 18.0684 20.2688C17.9042 20.3827 17.582 20.4744 17.3547 20.4744C16.8274 20.4712 15.8706 20.1297 15.1348 19.6806C14.5632 19.3327 13.8306 18.7097 13.2685 18.093C12.6054 17.3688 12.1538 16.7299 11.797 16.0088C11.336 15.0822 11.2191 14.5161 11.4117 14.1018C11.4591 13.9974 11.5223 13.8868 11.5506 13.852C11.5791 13.8204 11.876 13.5768 12.2043 13.3112C12.8486 12.7988 12.9528 12.6818 13.0727 12.3308C13.2243 11.8848 13.1833 11.4294 12.9496 10.9709C12.7696 10.623 12.2991 9.86397 11.958 9.37377C11.5065 8.72863 10.3823 7.34977 10.158 7.1631C9.75389 6.83423 9.23603 6.7773 8.66443 6.9987C8.06136 7.2327 6.93083 8.14357 6.44766 8.77923C6.01189 9.35483 5.84457 9.76277 5.81929 10.3004C5.7972 10.7432 5.83508 10.9266 6.06876 11.4927C7.89709 15.9329 10.6254 19.4782 14.3738 22.2929C16.3316 23.7634 18.362 24.883 20.4683 25.6484C21.6966 26.0943 22.2303 26.1164 22.8587 25.7496C23.124 25.5914 23.7808 24.9178 24.1471 24.4276C24.7534 23.6116 24.9776 23.2354 25.0408 22.9349C25.085 22.7293 25.0502 22.372 24.9681 22.1442Z" fill="white"/>
</g>
<defs>
<clipPath id="clip0">
<rect width="32" height="32" fill="white"/>
</clipPath>
</defs>
</svg>
