<svg width="60" height="60" viewBox="0 0 60 60" fill="none" xmlns="http://www.w3.org/2000/svg">
<g clip-path="url(#clip0)">
<path d="M59.8922 23.189L56.4844 17.2875C56.4308 17.194 56.3592 17.112 56.2738 17.0462C56.1883 16.9805 56.0908 16.9323 55.9866 16.9044C55.8825 16.8765 55.7739 16.8695 55.6671 16.8838C55.5602 16.898 55.4572 16.9333 55.3641 16.9875L54.4359 17.5218C54.0356 17.752 53.6996 18.0791 53.4588 18.4731C53.218 18.8671 53.0801 19.3153 53.0578 19.7765L44.25 23.2968C44.2453 23.2968 43.3594 23.6531 43.3594 23.6531L42.1828 16.5375C42.1515 16.345 42.0527 16.17 41.9041 16.0437C41.7556 15.9175 41.5669 15.8482 41.3719 15.8484H30C29.8862 15.8488 29.7737 15.8727 29.6697 15.9187C29.5656 15.9647 29.4722 16.0317 29.3953 16.1156L25.4625 20.3812C24.8693 17.6028 23.3395 15.1125 21.1294 13.3273C18.9193 11.5422 16.1629 10.5705 13.3219 10.575H12.4219C9.12739 10.575 5.96784 11.8837 3.63828 14.2132C1.30873 16.5428 0 19.7024 0 22.9968C0 26.2913 1.30873 29.4509 3.63828 31.7804C5.96784 34.11 9.12739 35.4187 12.4219 35.4187H14.6953L13.2422 44.2078H12.2438C11.6544 44.2101 11.0899 44.4456 10.6736 44.8628C10.2573 45.28 10.023 45.845 10.0219 46.4343V47.1984C10.0221 47.788 10.2561 48.3535 10.6726 48.7709C11.0891 49.1883 11.6541 49.4235 12.2438 49.425H47.7563C48.3459 49.4235 48.9109 49.1883 49.3274 48.7709C49.7439 48.3535 49.9779 47.788 49.9781 47.1984V46.4343C49.977 45.845 49.7427 45.28 49.3264 44.8628C48.9101 44.4456 48.3456 44.2101 47.7563 44.2078H46.7578L44.9766 33.4218L56.0203 24.9047C56.4305 25.1178 56.8879 25.2239 57.35 25.2133C57.8121 25.2026 58.2641 25.0755 58.6641 24.8437L59.5875 24.3093C59.7759 24.2007 59.9137 24.0219 59.9708 23.812C60.0279 23.6021 59.9996 23.3782 59.8922 23.189ZM12.4219 33.7781C9.56251 33.7781 6.82026 32.6422 4.79838 30.6203C2.7765 28.5985 1.64063 25.8562 1.64063 22.9968C1.64063 20.1375 2.7765 17.3952 4.79838 15.3733C6.82026 13.3515 9.56251 12.2156 12.4219 12.2156H13.3219C15.8251 12.2106 18.2516 13.0793 20.1829 14.6717C22.1143 16.2642 23.4294 18.4807 23.9016 20.939H21.7359C21.2831 19.0502 20.2059 17.3695 18.6788 16.1691C17.1518 14.9687 15.2642 14.3189 13.3219 14.325H12.4219C10.122 14.325 7.91623 15.2386 6.28993 16.8649C4.66364 18.4912 3.75 20.6969 3.75 22.9968C3.75 25.2968 4.66364 27.5025 6.28993 29.1288C7.91623 30.7551 10.122 31.6687 12.4219 31.6687H15.3141L14.9672 33.7781H12.4219ZM20.0297 20.939H17.7844C17.5908 20.9396 17.4037 21.0086 17.2562 21.1338C17.1086 21.2591 17.0101 21.4325 16.9781 21.6234L15.5859 30.0281H12.4219C10.5571 30.0281 8.76865 29.2873 7.45003 27.9687C6.13142 26.6501 5.39063 24.8616 5.39063 22.9968C5.39063 21.132 6.13142 19.3436 7.45003 18.025C8.76865 16.7064 10.5571 15.9656 12.4219 15.9656H13.3219C14.8263 15.9623 16.2916 16.4445 17.5001 17.3405C18.7086 18.2365 19.5957 19.4985 20.0297 20.939ZM47.7563 45.8484C47.9106 45.8502 48.0581 45.9127 48.1669 46.0223C48.2756 46.132 48.3369 46.2799 48.3375 46.4343V47.1984C48.3378 47.3531 48.2767 47.5015 48.1678 47.6113C48.0589 47.7212 47.9109 47.7834 47.7563 47.7843H12.2438C12.0891 47.7834 11.9411 47.7212 11.8322 47.6113C11.7233 47.5015 11.6622 47.3531 11.6625 47.1984V46.4343C11.6631 46.2799 11.7244 46.132 11.8331 46.0223C11.9419 45.9127 12.0894 45.8502 12.2438 45.8484H47.7563ZM45.0938 44.2078H14.9063L18.4828 22.5797H25.3078C25.4216 22.5793 25.5341 22.5554 25.6381 22.5094C25.7422 22.4634 25.8356 22.3964 25.9125 22.3125L30.3609 17.489H40.6781L43.275 33.2062L45.0938 44.2078ZM44.6719 31.5843L44.0484 27.8297L43.6313 25.3125L53.4656 21.3797L54.8344 23.7468L44.6719 31.5843ZM57.8438 23.4234C57.5844 23.5726 57.2765 23.613 56.9875 23.5356C56.6984 23.4583 56.4518 23.2697 56.3016 23.0109L55.5703 21.7453L54.8438 20.4843C54.7691 20.3561 54.7205 20.2144 54.7008 20.0673C54.6811 19.9203 54.6907 19.7707 54.7291 19.6274C54.7674 19.4841 54.8337 19.3497 54.9242 19.2321C55.0147 19.1145 55.1275 19.016 55.2563 18.9422L55.4719 18.8156L58.0594 23.2968L57.8438 23.4234Z" fill="#1C480A"/>
<path d="M30.5723 27.1003C30.4192 26.9511 30.2139 26.8677 30.0002 26.8677C29.7865 26.8677 29.5812 26.9511 29.4281 27.1003C28.875 27.6384 24.0342 32.4422 24.0342 35.5406C24.0481 37.1136 24.6828 38.6174 25.8 39.7248C26.9173 40.8322 28.4267 41.4535 29.9997 41.4535C31.5728 41.4535 33.0822 40.8322 34.1994 39.7248C35.3167 38.6174 35.9513 37.1136 35.9653 35.5406C35.9657 32.4422 31.125 27.6384 30.5723 27.1003ZM30 39.8658C28.8532 39.8645 27.7538 39.4084 26.943 38.5976C26.1321 37.7867 25.676 36.6873 25.6748 35.5406C25.6748 33.9 28.1296 30.7964 30 28.8525C31.8703 30.7969 34.3251 33.8972 34.3251 35.5406C34.3239 36.6873 33.8678 37.7867 33.0569 38.5976C32.2461 39.4084 31.1467 39.8645 30 39.8658Z" fill="#1C480A"/>
</g>
<defs>
<clipPath id="clip0">
<rect width="60" height="60" fill="white"/>
</clipPath>
</defs>
</svg>
