<svg width="32" height="32" viewBox="0 0 32 32" fill="none" xmlns="http://www.w3.org/2000/svg">
<path d="M0 32L2.752 23.7446C1.35559 21.3959 0.551724 18.6549 0.551724 15.7241C0.551724 7.04 7.59172 0 16.2759 0C24.96 0 32 7.04 32 15.7241C32 24.4083 24.96 31.4483 16.2759 31.4483C13.6337 31.4483 11.1454 30.7934 8.96 29.6425L0 32Z" fill="#2CB742"/>
<path d="M26.3078 20.9569C25.5817 19.5848 22.9042 18.0157 22.9042 18.0157C22.2984 17.6703 21.5674 17.6317 21.222 18.2474C21.222 18.2474 20.352 19.2907 20.1307 19.4408C19.12 20.1255 18.1837 20.099 17.2386 19.1539L15.0422 16.9575L12.8458 14.7611C11.9006 13.816 11.8742 12.8797 12.5589 11.8689C12.7089 11.6477 13.7522 10.7776 13.7522 10.7776C14.368 10.4317 14.3293 9.70121 13.984 9.09542C13.984 9.09542 12.4149 6.4179 11.0427 5.69183C10.459 5.38287 9.7423 5.491 9.27554 5.95776L8.30561 6.92769C5.22865 10.0047 6.74368 13.4783 9.82065 16.5553L12.6328 19.3674L15.4449 22.1796C18.5219 25.2565 21.9955 26.7716 25.0725 23.6946L26.0424 22.7247C26.5092 22.2568 26.6168 21.5401 26.3078 20.9569Z" fill="white"/>
</svg>
