<svg width="33" height="33" viewBox="0 0 33 33" fill="none" xmlns="http://www.w3.org/2000/svg">
<path d="M31.2018 17.0049L31.5112 16.4999L31.2018 15.9946C31.1499 15.9102 29.9052 13.9011 27.4869 11.8877C24.2706 9.21013 20.4814 7.79468 16.5289 7.79468C12.5773 7.79468 8.77889 9.20937 5.54415 11.8857C3.11205 13.8981 1.8532 15.9057 1.80083 15.9903L1.48486 16.4999L1.80083 17.0095C1.8532 17.0941 3.11205 19.1017 5.54415 21.1141C8.77889 23.7904 12.5773 25.2051 16.5289 25.2051C20.4814 25.2051 24.2706 23.7896 27.4869 21.1121C29.9052 19.0986 31.1499 17.0895 31.2018 17.0049ZM26.1984 19.6684C23.305 22.0592 20.0516 23.2712 16.5289 23.2712C13.0049 23.2712 9.7409 22.0585 6.82793 19.6661C5.32133 18.4289 4.2999 17.1761 3.79964 16.4999C4.30016 15.8231 5.32159 14.5706 6.82793 13.3334C9.7409 10.9413 13.0046 9.72827 16.5289 9.72827C20.0516 9.72827 23.3048 10.9405 26.1984 13.3311C27.6981 14.5703 28.7108 15.8249 29.2042 16.4999C28.7103 17.1751 27.6979 18.4297 26.1984 19.6684Z" fill="white"/>
<path d="M16.5 10.6907C13.2967 10.6907 10.6907 13.2967 10.6907 16.5C10.6907 19.7033 13.2967 22.3094 16.5 22.3094C19.7033 22.3094 22.3094 19.7033 22.3094 16.5C22.3094 13.2967 19.7033 10.6907 16.5 10.6907ZM16.5 20.3758C14.363 20.3758 12.6243 18.637 12.6243 16.5C12.6243 14.363 14.363 12.6243 16.5 12.6243C18.637 12.6243 20.3758 14.363 20.3758 16.5C20.3758 18.637 18.637 20.3758 16.5 20.3758Z" fill="white"/>
<path d="M1.93359 1.93359H5.96997V0H0V5.89746H1.93359V1.93359Z" fill="white"/>
<path d="M27.03 0V1.93359H31.0664V5.89746H33V0H27.03Z" fill="white"/>
<path d="M1.93359 27.1025H0V33H5.96997V31.0664H1.93359V27.1025Z" fill="white"/>
<path d="M31.0664 31.0664H27.03V33H33V27.1025H31.0664V31.0664Z" fill="white"/>
</svg>
